/* XPM */
static char *_0a017436b974e39aa4cf8bf1e9adc6b[] = {
/* columns rows colors chars-per-pixel */
"96 96 11 1 ",
"  c black",
". c black",
"X c None",
"o c #6DC651",
"O c #3E993E",
"+ c #5B6E77",
"@ c #227037",
"# c #3C5560",
"$ c #10552B",
"% c #112B38",
"& c #001721",
/* pixels */
"@@@@&&@@@@@@@@@@@@@@@@@@@@@@&&@@@@@@&&@@@@@@@@@@@@@@@@@@@@@@&&@@@@@@&&@@@@@@@@@@@@@@@@@@@@@@&&@@",
"@@@@&&@@@@@@@@@@@@@@@@@@@@@@&&@@@@@@&&@@@@@@@@@@@@@@@@@@@@@@&&@@@@@@&&@@@@@@@@@@@@@@@@@@@@@@&&@@",
"&&%%@@&&@@OO&&&&@@OOOOOO&&&&@@&&&&%%@@&&@@OO&&&&@@OOOOOO&&&&@@&&&&%%@@&&@@OO&&&&@@OOOOOO&&&&@@&&",
"&&%%@@&&@@OO&&&&@@OOOOOO&&&&@@&&&&%%@@&&@@OO&&&&@@OOOOOO&&&&@@&&&&%%@@&&@@OO&&&&@@OOOOOO&&&&@@&&",
"%%%%&&&&&&OO&&&&&&OOOOOO%%%%%%%%%%%%&&&&&&OO&&&&&&OOOOOO%%%%%%%%%%%%&&&&&&OO&&&&&&OOOOOO%%%%%%%%",
"%%%%&&&&&&OO&&&&&&OOOOOO%%%%%%%%%%%%&&&&&&OO&&&&&&OOOOOO%%%%%%%%%%%%&&&&&&OO&&&&&&OOOOOO%%%%%%%%",
"&&%%&&&&&&%%&&&&&&@@OO@@%%&&&&&&&&%%&&&&&&%%&&&&&&@@OO@@%%&&&&&&&&%%&&&&&&%%&&&&&&@@OO@@%%&&&&&&",
"&&%%&&&&&&%%&&&&&&@@OO@@%%&&&&&&&&%%&&&&&&%%&&&&&&@@OO@@%%&&&&&&&&%%&&&&&&%%&&&&&&@@OO@@%%&&&&&&",
"&&%%%%%%%%OO%%%%%%&&oo&&%%&&@@&&&&%%%%%%%%OO%%%%%%&&oo&&%%&&@@&&&&%%%%%%%%OO%%%%%%&&oo&&%%&&@@&&",
"&&%%%%%%%%OO%%%%%%&&oo&&%%&&@@&&&&%%%%%%%%OO%%%%%%&&oo&&%%&&@@&&&&%%%%%%%%OO%%%%%%&&oo&&%%&&@@&&",
"&&%%&&&&&&&&&&&&%%&&OO&&%%&&&&&&&&%%&&&&&&&&&&&&%%&&OO&&%%&&&&&&&&%%&&&&&&&&&&&&%%&&OO&&%%&&&&&&",
"&&%%&&&&&&&&&&&&%%&&OO&&%%&&&&&&&&%%&&&&&&&&&&&&%%&&OO&&%%&&&&&&&&%%&&&&&&&&&&&&%%&&OO&&%%&&&&&&",
"&&@@&&&&&&&&&&&&%%&&&&&&%%&&&&&&&&@@&&&&&&&&&&&&%%&&&&&&%%&&&&&&&&@@&&&&&&&&&&&&%%&&&&&&%%&&&&&&",
"&&@@&&&&&&&&&&&&%%&&&&&&%%&&&&&&&&@@&&&&&&&&&&&&%%&&&&&&%%&&&&&&&&@@&&&&&&&&&&&&%%&&&&&&%%&&&&&&",
"&&%%&&&&&&&&&&&&%%%%OO%%%%%%&&&&&&%%&&&&&&&&&&&&%%%%OO%%%%%%&&&&&&%%&&&&&&&&&&&&%%%%OO%%%%%%&&&&",
"&&%%&&&&&&&&&&&&%%%%OO%%%%%%&&&&&&%%&&&&&&&&&&&&%%%%OO%%%%%%&&&&&&%%&&&&&&&&&&&&%%%%OO%%%%%%&&&&",
"&&%%&&&&&&&&&&&&&&&&&&&&&&%%&&&&&&%%&&&&&&&&&&&&&&&&&&&&&&%%&&&&&&%%&&&&&&&&&&&&&&&&&&&&&&%%&&&&",
"&&%%&&&&&&&&&&&&&&&&&&&&&&%%&&&&&&%%&&&&&&&&&&&&&&&&&&&&&&%%&&&&&&%%&&&&&&&&&&&&&&&&&&&&&&%%&&&&",
"@@@@$$&&&&&&&&&&&&&&&&$$@@@@@@@@@@@@$$&&&&&&&&&&&&&&&&$$@@@@@@@@@@@@$$&&&&&&&&&&&&&&&&$$@@@@@@@@",
"@@@@$$&&&&&&&&&&&&&&&&$$@@@@@@@@@@@@$$&&&&&&&&&&&&&&&&$$@@@@@@@@@@@@$$&&&&&&&&&&&&&&&&$$@@@@@@@@",
"@@OOOO@@$$&&&&&&&&$$@@@@@@@@@@@@@@OOOO@@$$&&&&&&&&$$@@@@@@@@@@@@@@OOOO@@$$&&&&&&&&$$@@@@@@@@@@@@",
"@@OOOO@@$$&&&&&&&&$$@@@@@@@@@@@@@@OOOO@@$$&&&&&&&&$$@@@@@@@@@@@@@@OOOO@@$$&&&&&&&&$$@@@@@@@@@@@@",
"@@@@OOOOOO@@$$&&&&@@@@@@@@@@@@@@@@@@OOOOOO@@$$&&&&@@@@@@@@@@@@@@@@@@OOOOOO@@$$&&&&@@@@@@@@@@@@@@",
"@@@@OOOOOO@@$$&&&&@@@@@@@@@@@@@@@@@@OOOOOO@@$$&&&&@@@@@@@@@@@@@@@@@@OOOOOO@@$$&&&&@@@@@@@@@@@@@@",
"@@OO@@OOOOOO@@&&$$@@@@$$$$@@@@@@@@OO@@OOOOOO@@&&$$@@@@$$$$@@@@@@@@OO@@OOOOOO@@&&$$@@@@$$$$@@@@@@",
"@@OO@@OOOOOO@@&&$$@@@@$$$$@@@@@@@@OO@@OOOOOO@@&&$$@@@@$$$$@@@@@@@@OO@@OOOOOO@@&&$$@@@@$$$$@@@@@@",
"@@@@OO@@OOOO@@$$$$@@$$@@@@$$@@@@@@@@OO@@OOOO@@$$$$@@$$@@@@$$@@@@@@@@OO@@OOOO@@$$$$@@$$@@@@$$@@@@",
"@@@@OO@@OOOO@@$$$$@@$$@@@@$$@@@@@@@@OO@@OOOO@@$$$$@@$$@@@@$$@@@@@@@@OO@@OOOO@@$$$$@@$$@@@@$$@@@@",
"@@@@@@@@@@@@@@$$$$$$@@@@OO@@$$@@@@@@@@@@@@@@@@$$$$$$@@@@OO@@$$@@@@@@@@@@@@@@@@$$$$$$@@@@OO@@$$@@",
"@@@@@@@@@@@@@@$$$$$$@@@@OO@@$$@@@@@@@@@@@@@@@@$$$$$$@@@@OO@@$$@@@@@@@@@@@@@@@@$$$$$$@@@@OO@@$$@@",
"@@@@$$$$$$$$@@$$$$$$@@@@@@@@$$@@@@@@$$$$$$$$@@$$$$$$@@@@@@@@$$@@@@@@$$$$$$$$@@$$$$$$@@@@@@@@$$@@",
"@@@@$$$$$$$$@@$$$$$$@@@@@@@@$$@@@@@@$$$$$$$$@@$$$$$$@@@@@@@@$$@@@@@@$$$$$$$$@@$$$$$$@@@@@@@@$$@@",
"@@$$@@OOOOOO$$$$$$$$$$@@@@@@$$@@@@$$@@OOOOOO$$$$$$$$$$@@@@@@$$@@@@$$@@OOOOOO$$$$$$$$$$@@@@@@$$@@",
"@@$$@@OOOOOO$$$$$$$$$$@@@@@@$$@@@@$$@@OOOOOO$$$$$$$$$$@@@@@@$$@@@@$$@@OOOOOO$$$$$$$$$$@@@@@@$$@@",
"$$@@@@OOooOOOO$$$$$$$$$$$$$$@@@@$$@@@@OOooOOOO$$$$$$$$$$$$$$@@@@$$@@@@OOooOOOO$$$$$$$$$$$$$$@@@@",
"$$@@@@OOooOOOO$$$$$$$$$$$$$$@@@@$$@@@@OOooOOOO$$$$$$$$$$$$$$@@@@$$@@@@OOooOOOO$$$$$$$$$$$$$$@@@@",
"$$@@@@OOOOooOO@@$$$$$$$$$$$$@@@@$$@@@@OOOOooOO@@$$$$$$$$$$$$@@@@$$@@@@OOOOooOO@@$$$$$$$$$$$$@@@@",
"$$@@@@OOOOooOO@@$$$$$$$$$$$$@@@@$$@@@@OOOOooOO@@$$$$$$$$$$$$@@@@$$@@@@OOOOooOO@@$$$$$$$$$$$$@@@@",
"$$@@@@@@OOOO@@$$$$$$$$$$$$$$$$$$$$@@@@@@OOOO@@$$$$$$$$$$$$$$$$$$$$@@@@@@OOOO@@$$$$$$$$$$$$$$$$$$",
"$$@@@@@@OOOO@@$$$$$$$$$$$$$$$$$$$$@@@@@@OOOO@@$$$$$$$$$$$$$$$$$$$$@@@@@@OOOO@@$$$$$$$$$$$$$$$$$$",
"$$$$@@@@@@$$$$$$@@@@@@@@@@$$$$$$$$$$@@@@@@$$$$$$@@@@@@@@@@$$$$$$$$$$@@@@@@$$$$$$@@@@@@@@@@$$$$$$",
"$$$$@@@@@@$$$$$$@@@@@@@@@@$$$$$$$$$$@@@@@@$$$$$$@@@@@@@@@@$$$$$$$$$$@@@@@@$$$$$$@@@@@@@@@@$$$$$$",
"$$$$$$$$$$$$$$@@@@@@OOOOOOOO@@$$$$$$$$$$$$$$$$@@@@@@OOOOOOOO@@$$$$$$$$$$$$$$$$@@@@@@OOOOOOOO@@$$",
"$$$$$$$$$$$$$$@@@@@@OOOOOOOO@@$$$$$$$$$$$$$$$$@@@@@@OOOOOOOO@@$$$$$$$$$$$$$$$$@@@@@@OOOOOOOO@@$$",
"$$$$$$$$$$$$$$@@@@OOOOooooOOOO@@$$$$$$$$$$$$$$@@@@OOOOooooOOOO@@$$$$$$$$$$$$$$@@@@OOOOooooOOOO@@",
"$$$$$$$$$$$$$$@@@@OOOOooooOOOO@@$$$$$$$$$$$$$$@@@@OOOOooooOOOO@@$$$$$$$$$$$$$$@@@@OOOOooooOOOO@@",
"$$$$$$@@@@@@$$@@@@OOOOooooooOO@@$$$$$$@@@@@@$$@@@@OOOOooooooOO@@$$$$$$@@@@@@$$@@@@OOOOooooooOO@@",
"$$$$$$@@@@@@$$@@@@OOOOooooooOO@@$$$$$$@@@@@@$$@@@@OOOOooooooOO@@$$$$$$@@@@@@$$@@@@OOOOooooooOO@@",
"$$$$@@@@@@@@@@$$@@OOOOOOooooOO@@$$$$@@@@@@@@@@$$@@OOOOOOooooOO@@$$$$@@@@@@@@@@$$@@OOOOOOooooOO@@",
"$$$$@@@@@@@@@@$$@@OOOOOOooooOO@@$$$$@@@@@@@@@@$$@@OOOOOOooooOO@@$$$$@@@@@@@@@@$$@@OOOOOOooooOO@@",
"$$$$@@@@OOOOOO$$@@OOOOOOOOooOO@@$$$$@@@@OOOOOO$$@@OOOOOOOOooOO@@$$$$@@@@OOOOOO$$@@OOOOOOOOooOO@@",
"$$$$@@@@OOOOOO$$@@OOOOOOOOooOO@@$$$$@@@@OOOOOO$$@@OOOOOOOOooOO@@$$$$@@@@OOOOOO$$@@OOOOOOOOooOO@@",
"$$@@@@OOOOoooo@@$$@@OOOOOOOOOO@@$$@@@@OOOOoooo@@$$@@OOOOOOOOOO@@$$@@@@OOOOoooo@@$$@@OOOOOOOOOO@@",
"$$@@@@OOOOoooo@@$$@@OOOOOOOOOO@@$$@@@@OOOOoooo@@$$@@OOOOOOOOOO@@$$@@@@OOOOoooo@@$$@@OOOOOOOOOO@@",
"$$@@@@OOOOooooOO$$@@OOOOOOOOOO$$$$@@@@OOOOooooOO$$@@OOOOOOOOOO$$$$@@@@OOOOooooOO$$@@OOOOOOOOOO$$",
"$$@@@@OOOOooooOO$$@@OOOOOOOOOO$$$$@@@@OOOOooooOO$$@@OOOOOOOOOO$$$$@@@@OOOOooooOO$$@@OOOOOOOOOO$$",
"$$@@@@OOOOOOooOO$$@@@@OOOOOO@@$$$$@@@@OOOOOOooOO$$@@@@OOOOOO@@$$$$@@@@OOOOOOooOO$$@@@@OOOOOO@@$$",
"$$@@@@OOOOOOooOO$$@@@@OOOOOO@@$$$$@@@@OOOOOOooOO$$@@@@OOOOOO@@$$$$@@@@OOOOOOooOO$$@@@@OOOOOO@@$$",
"$$@@@@@@OOOOOOOO$$@@@@@@@@@@$$$$$$@@@@@@OOOOOOOO$$@@@@@@@@@@$$$$$$@@@@@@OOOOOOOO$$@@@@@@@@@@$$$$",
"$$@@@@@@OOOOOOOO$$@@@@@@@@@@$$$$$$@@@@@@OOOOOOOO$$@@@@@@@@@@$$$$$$@@@@@@OOOOOOOO$$@@@@@@@@@@$$$$",
"@@@@@@@@OOOOOOOO@@$$$$$$$$$$@@@@@@@@@@@@OOOOOOOO@@$$$$$$$$$$@@@@@@@@@@@@OOOOOOOO@@$$$$$$$$$$@@@@",
"@@@@@@@@OOOOOOOO@@$$$$$$$$$$@@@@@@@@@@@@OOOOOOOO@@$$$$$$$$$$@@@@@@@@@@@@OOOOOOOO@@$$$$$$$$$$@@@@",
"OOOO@@@@@@OOOO@@$$@@@@@@$$@@@@OOOOOO@@@@@@OOOO@@$$@@@@@@$$@@@@OOOOOO@@@@@@OOOO@@$$@@@@@@$$@@@@OO",
"OOOO@@@@@@OOOO@@$$@@@@@@$$@@@@OOOOOO@@@@@@OOOO@@$$@@@@@@$$@@@@OOOOOO@@@@@@OOOO@@$$@@@@@@$$@@@@OO",
"OOOOOO@@@@@@@@$$@@@@OOOO@@$$OOOOOOOOOO@@@@@@@@$$@@@@OOOO@@$$OOOOOOOOOO@@@@@@@@$$@@@@OOOO@@$$OOOO",
"OOOOOO@@@@@@@@$$@@@@OOOO@@$$OOOOOOOOOO@@@@@@@@$$@@@@OOOO@@$$OOOOOOOOOO@@@@@@@@$$@@@@OOOO@@$$OOOO",
"ooooOO$$@@OO$$@@@@@@OOoo@@$$OOOOooooOO$$@@OO$$@@@@@@OOoo@@$$OOOOooooOO$$@@OO$$@@@@@@OOoo@@$$OOOO",
"ooooOO$$@@OO$$@@@@@@OOoo@@$$OOOOooooOO$$@@OO$$@@@@@@OOoo@@$$OOOOooooOO$$@@OO$$@@@@@@OOoo@@$$OOOO",
"ooooOO$$$$@@$$@@@@@@OOooOO$$OOOOooooOO$$$$@@$$@@@@@@OOooOO$$OOOOooooOO$$$$@@$$@@@@@@OOooOO$$OOOO",
"ooooOO$$$$@@$$@@@@@@OOooOO$$OOOOooooOO$$$$@@$$@@@@@@OOooOO$$OOOOooooOO$$$$@@$$@@@@@@OOooOO$$OOOO",
"OOOOOO$$$$$$$$@@@@@@OOOOOO@@OOOOOOOOOO$$$$$$$$@@@@@@OOOOOO@@OOOOOOOOOO$$$$$$$$@@@@@@OOOOOO@@OOOO",
"OOOOOO$$$$$$$$@@@@@@OOOOOO@@OOOOOOOOOO$$$$$$$$@@@@@@OOOOOO@@OOOOOOOOOO$$$$$$$$@@@@@@OOOOOO@@OOOO",
"OOOOOO$$@@@@@@$$@@@@@@OO@@$$@@OOOOOOOO$$@@@@@@$$@@@@@@OO@@$$@@OOOOOOOO$$@@@@@@$$@@@@@@OO@@$$@@OO",
"OOOOOO$$@@@@@@$$@@@@@@OO@@$$@@OOOOOOOO$$@@@@@@$$@@@@@@OO@@$$@@OOOOOOOO$$@@@@@@$$@@@@@@OO@@$$@@OO",
"OOOO@@@@OOOOOOOO$$$$$$$$$$@@@@@@OOOO@@@@OOOOOOOO$$$$$$$$$$@@@@@@OOOO@@@@OOOOOOOO$$$$$$$$$$@@@@@@",
"OOOO@@@@OOOOOOOO$$$$$$$$$$@@@@@@OOOO@@@@OOOOOOOO$$$$$$$$$$@@@@@@OOOO@@@@OOOOOOOO$$$$$$$$$$@@@@@@",
"@@@@@@OOOOOOooOOOO@@$$@@@@OOOO@@@@@@@@OOOOOOooOOOO@@$$@@@@OOOO@@@@@@@@OOOOOOooOOOO@@$$@@@@OOOO@@",
"@@@@@@OOOOOOooOOOO@@$$@@@@OOOO@@@@@@@@OOOOOOooOOOO@@$$@@@@OOOO@@@@@@@@OOOOOOooOOOO@@$$@@@@OOOO@@",
"$$@@OOOOOOOOOOOOOOOO@@@@OOOOOOOO$$@@OOOOOOOOOOOOOOOO@@@@OOOOOOOO$$@@OOOOOOOOOOOOOOOO@@@@OOOOOOOO",
"$$@@OOOOOOOOOOOOOOOO@@@@OOOOOOOO$$@@OOOOOOOOOOOOOOOO@@@@OOOOOOOO$$@@OOOOOOOOOOOOOOOO@@@@OOOOOOOO",
"@@$$$$$$@@@@@@@@@@@@@@@@@@@@@@@@@@$$$$$$@@@@@@@@@@@@@@@@@@@@@@@@@@$$$$$$@@@@@@@@@@@@@@@@@@@@@@@@",
"@@$$$$$$@@@@@@@@@@@@@@@@@@@@@@@@@@$$$$$$@@@@@@@@@@@@@@@@@@@@@@@@@@$$$$$$@@@@@@@@@@@@@@@@@@@@@@@@",
"%%%%%%%%%%%%%%%%%%%%%%%%%%%%%%%%%%%%%%%%%%%%%%%%%%%%%%%%%%%%%%%%%%%%%%%%%%%%%%%%%%%%%%%%%%%%%%%%",
"%%%%%%%%%%%%%%%%%%%%%%%%%%%%%%%%%%%%%%%%%%%%%%%%%%%%%%%%%%%%%%%%%%%%%%%%%%%%%%%%%%%%%%%%%%%%%%%%",
"++++++++##%%##++++++++++##%%##++++++++++##%%##++++++++++##%%##++++++++++##%%##++++++++++##%%##++",
"++++++++##%%##++++++++++##%%##++++++++++##%%##++++++++++##%%##++++++++++##%%##++++++++++##%%##++",
"##########%%##############%%##############%%##############%%##############%%##############%%####",
"##########%%##############%%##############%%##############%%##############%%##############%%####",
"%%%%%%%%%%%%%%%%%%%%%%%%%%%%%%%%%%%%%%%%%%%%%%%%%%%%%%%%%%%%%%%%%%%%%%%%%%%%%%%%%%%%%%%%%%%%%%%%",
"%%%%%%%%%%%%%%%%%%%%%%%%%%%%%%%%%%%%%%%%%%%%%%%%%%%%%%%%%%%%%%%%%%%%%%%%%%%%%%%%%%%%%%%%%%%%%%%%",
"XXXXXXXXXXXXXXXXXXXXXXXXXXXXXXXXXXXXXXXXXXXXXXXXXXXXXXXXXXXXXXXXXXXXXXXXXXXXXXXXXXXXXXXXXXXXXXXX",
"XXXXXXXXXXXXXXXXXXXXXXXXXXXXXXXXXXXXXXXXXXXXXXXXXXXXXXXXXXXXXXXXXXXXXXXXXXXXXXXXXXXXXXXXXXXXXXXX",
"................................................................................................",
"................................................................................................",
"                                                                                                ",
"                                                                                                "
};
