/* XPM */
static char *_8ae1bdac6f04c11f3f6db7003c3a75botAQ610oiY4w8O2q[] = {
/* columns rows colors chars-per-pixel */
"128 128 7 1 ",
"  c white",
". c #FFE5F6",
"X c #FFD1F0",
"o c #FFC3F9",
"O c #FFBDF9",
"+ c #FFB7F9",
"@ c #FFB5F6",
/* pixels */
"OOOOOOOO++OO++++OOOOOOOOOOOOOO++++OOOOOOOO++++++++++++OOOOOO++OOOOOOOOOO++OO++++OOOOOOOOOOOOOO++++OOOOOOOO++++++++++++OOOOOO++OO",
"OOOOOOOO++OO++++OOOOOOOOOOOOOO++++OOOOOOOO++++++++++++OOOOOO++OOOOOOOOOO++OO++++OOOOOOOOOOOOOO++++OOOOOOOO++++++++++++OOOOOO++OO",
"OOOOOOOO++OO++++++++++++OOOO++++++OO++++++++OOXXXX++XXXXOOOOOOOOOOOOOOOO++OO++++++++++++OOOO++++++OO++++++++OOXXXX++XXXXOOOOOOOO",
"OOOOOOOO++OO++++++++++++OOOO++++++OO++++++++OOXXXX++XXXXOOOOOOOOOOOOOOOO++OO++++++++++++OOOO++++++OO++++++++OOXXXX++XXXXOOOOOOOO",
"++++OOXX..OOXX..++++++++++++++++++++++++++OOXX..  XX..  XXOOOOOO++++OOXX..OOXX..++++++++++++++++++++++++++OOXX..  XX..  XXOOOOOO",
"++++OOXX..OOXX..++++++++++++++++++++++++++OOXX..  XX..  XXOOOOOO++++OOXX..OOXX..++++++++++++++++++++++++++OOXX..  XX..  XXOOOOOO",
"++OOOOXXXXXXXXXX++++++++++OOOO++++OOOOOO++++XXXX..XXXX..XX++++OO++OOOOXXXXXXXXXX++++++++++OOOO++++OOOOOO++++XXXX..XXXX..XX++++OO",
"++OOOOXXXXXXXXXX++++++++++OOOO++++OOOOOO++++XXXX..XXXX..XX++++OO++OOOOXXXXXXXXXX++++++++++OOOO++++OOOOOO++++XXXX..XXXX..XX++++OO",
"++OO++++XXXXXXOO++++++++++OOXXOOXXOOOOOOOO++++XXXXXXXXXX++++OOOO++OO++++XXXXXXOO++++++++++OOXXOOXXOOOOOOOO++++XXXXXXXXXX++++OOOO",
"++OO++++XXXXXXOO++++++++++OOXXOOXXOOOOOOOO++++XXXXXXXXXX++++OOOO++OO++++XXXXXXOO++++++++++OOXXOOXXOOOOOOOO++++XXXXXXXXXX++++OOOO",
"OOOOOOOOOOXXOOOOOOOO++++OOOOOOXXOO++++++OOOOOOOOXXXXXXOOOOOOOOOOOOOOOOOOOOXXOOOOOOOO++++OOOOOOXXOO++++++OOOOOOOOXXXXXXOOOOOOOOOO",
"OOOOOOOOOOXXOOOOOOOO++++OOOOOOXXOO++++++OOOOOOOOXXXXXXOOOOOOOOOOOOOOOOOOOOXXOOOOOOOO++++OOOOOOXXOO++++++OOOOOOOOXXXXXXOOOOOOOOOO",
"OOOOOOOO++++++OOOOOO++++++++OOOOOOOOOOOOOO++++OOOOXXOOOOOOOOOOOOOOOOOOOO++++++OOOOOO++++++++OOOOOOOOOOOOOO++++OOOOXXOOOOOOOOOOOO",
"OOOOOOOO++++++OOOOOO++++++++OOOOOOOOOOOOOO++++OOOOXXOOOOOOOOOOOOOOOOOOOO++++++OOOOOO++++++++OOOOOOOOOOOOOO++++OOOOXXOOOOOOOOOOOO",
"OOOOOOOOOOOOOOOOooOO++OOOOOOOOOOOOOOOOOOOOOOOOOOOOOOOOOOOOOOOOOOOOOOOOOOOOOOOOOOooOO++OOOOOOOOOOOOOOOOOOOOOOOOOOOOOOOOOOOOOOOOOO",
"OOOOOOOOOOOOOOOOooOO++OOOOOOOOOOOOOOOOOOOOOOOOOOOOOOOOOOOOOOOOOOOOOOOOOOOOOOOOOOooOO++OOOOOOOOOOOOOOOOOOOOOOOOOOOOOOOOOOOOOOOOOO",
"OOOOOOOOOOOOOOooOOOOOOOOOOOOOOOOooooOOOOOOOOOOOOOOOOOOOOOOOOOOOOOOOOOOOOOOOOOOooOOOOOOOOOOOOOOOOooooOOOOOOOOOOOOOOOOOOOOOOOOOOOO",
"OOOOOOOOOOOOOOooOOOOOOOOOOOOOOOOooooOOOOOOOOOOOOOOOOOOOOOOOOOOOOOOOOOOOOOOOOOOooOOOOOOOOOOOOOOOOooooOOOOOOOOOOOOOOOOOOOOOOOOOOOO",
"OOOOOOOOOOOOOOOOOOOOOO++OOOOOOOOooooooOOOOOOOOOOOOOOooOOOOOOOOOOOOOOOOOOOOOOOOOOOOOOOO++OOOOOOOOooooooOOOOOOOOOOOOOOooOOOOOOOOOO",
"OOOOOOOOOOOOOOOOOOOOOO++OOOOOOOOooooooOOOOOOOOOOOOOOooOOOOOOOOOOOOOOOOOOOOOOOOOOOOOOOO++OOOOOOOOooooooOOOOOOOOOOOOOOooOOOOOOOOOO",
"OOOOXXOOXXOOOOOOOOOOXXXXOOXXXXOOooOOOOOOOOOOOOOOOOOOOOOOOOOOOOOOOOOOXXOOXXOOOOOOOOOOXXXXOOXXXXOOooOOOOOOOOOOOOOOOOOOOOOOOOOOOOOO",
"OOOOXXOOXXOOOOOOOOOOXXXXOOXXXXOOooOOOOOOOOOOOOOOOOOOOOOOOOOOOOOOOOOOXXOOXXOOOOOOOOOOXXXXOOXXXXOOooOOOOOOOOOOOOOOOOOOOOOOOOOOOOOO",
"OOOOOOXXOOOOooooooXX..  XX..  XXOOOOOOOOOOOO++++++OOOOXX..++XX..OOOOOOXXOOOOooooooXX..  XX..  XXOOOOOOOOOOOO++++++OOOOXX..++XX..",
"OOOOOOXXOOOOooooooXX..  XX..  XXOOOOOOOOOOOO++++++OOOOXX..++XX..OOOOOOXXOOOOooooooXX..  XX..  XXOOOOOOOOOOOO++++++OOOOXX..++XX..",
"OOOOOOOOOOOOOOOOOOXXXX..XXXX..XXOO++OOOOOO++OOOOOOOO++XXXXXXXXXXOOOOOOOOOOOOOOOOOOXXXX..XXXX..XXOO++OOOOOO++OOOOOOOO++XXXXXXXXXX",
"OOOOOOOOOOOOOOOOOOXXXX..XXXX..XXOO++OOOOOO++OOOOOOOO++XXXXXXXXXXOOOOOOOOOOOOOOOOOOXXXX..XXXX..XXOO++OOOOOO++OOOOOOOO++XXXXXXXXXX",
"OOOOOOOOOO++OOOOOOOOXXXXXXXXXXOO++OOOOOOOOOO++++++++++++XXXXXXOOOOOOOOOOOO++OOOOOOOOXXXXXXXXXXOO++OOOOOOOOOO++++++++++++XXXXXXOO",
"OOOOOOOOOO++OOOOOOOOXXXXXXXXXXOO++OOOOOOOOOO++++++++++++XXXXXXOOOOOOOOOOOO++OOOOOOOOXXXXXXXXXXOO++OOOOOOOOOO++++++++++++XXXXXXOO",
"OOOOOO++OOOOOOOOOOOO++XXXXXXOOOO++++++OO++++++++++++++++++XX++OOOOOOOO++OOOOOOOOOOOO++XXXXXXOOOO++++++OO++++++++++++++++++XX++OO",
"OOOOOO++OOOOOOOOOOOO++XXXXXXOOOO++++++OO++++++++++++++++++XX++OOOOOOOO++OOOOOOOOOOOO++XXXXXXOOOO++++++OO++++++++++++++++++XX++OO",
"OOOO++++++OOOOOOOOOOOOOOXXOOOO++++OOOOOO++OO++++++++++OOOOOOOOOOOOOO++++++OOOOOOOOOOOOOOXXOOOO++++OOOOOO++OO++++++++++OOOOOOOOOO",
"OOOO++++++OOOOOOOOOOOOOOXXOOOO++++OOOOOO++OO++++++++++OOOOOOOOOOOOOO++++++OOOOOOOOOOOOOOXXOOOO++++OOOOOO++OO++++++++++OOOOOOOOOO",
"OOOOOOOO++OOOOOOOOOOOOOOOOOOOOOO++++XX..++XX..++++OO++++OOOOOOOOOOOOOOOO++OOOOOOOOOOOOOOOOOOOOOO++++XX..++XX..++++OO++++OOOOOOOO",
"OOOOOOOO++OOOOOOOOOOOOOOOOOOOOOO++++XX..++XX..++++OO++++OOOOOOOOOOOOOOOO++OOOOOOOOOOOOOOOOOOOOOO++++XX..++XX..++++OO++++OOOOOOOO",
"OOOOXX..OOXX..OO++++++++OOOOOOOO++++XXXXXXXXXX++++++++++++OOOO++OOOOXX..OOXX..OO++++++++OOOOOOOO++++XXXXXXXXXX++++++++++++OOOO++",
"OOOOXX..OOXX..OO++++++++OOOOOOOO++++XXXXXXXXXX++++++++++++OOOO++OOOOXX..OOXX..OO++++++++OOOOOOOO++++XXXXXXXXXX++++++++++++OOOO++",
"OOOOXXXXXXXXXXOO++++OOOOOOOOOOOOOOOO++XXXXXX++++OO++++++XXOOXXOOOOOOXXXXXXXXXXOO++++OOOOOOOOOOOOOOOO++XXXXXX++++OO++++++XXOOXXOO",
"OOOOXXXXXXXXXXOO++++OOOOOOOOOOOOOOOO++XXXXXX++++OO++++++XXOOXXOOOOOOXXXXXXXXXXOO++++OOOOOOOOOOOOOOOO++XXXXXX++++OO++++++XXOOXXOO",
"OOOOOOXXXXXXOOOOOOOO++OOOOOOOOOOOOOO++++XX++++++++OO++++OOXXOO++OOOOOOXXXXXXOOOOOOOO++OOOOOOOOOOOOOO++++XX++++++++OO++++OOXXOO++",
"OOOOOOXXXXXXOOOOOOOO++OOOOOOOOOOOOOO++++XX++++++++OO++++OOXXOO++OOOOOOXXXXXXOOOOOOOO++OOOOOOOOOOOOOO++++XX++++++++OO++++OOXXOO++",
"++++++OOXXOO++++OOOOOO++OOOOOOOOOO++++++++OO++++++++++++OOOOOOOO++++++OOXXOO++++OOOOOO++OOOOOOOOOO++++++++OO++++++++++++OOOOOOOO",
"++++++OOXXOO++++OOOOOO++OOOOOOOOOO++++++++OO++++++++++++OOOOOOOO++++++OOXXOO++++OOOOOO++OOOOOOOOOO++++++++OO++++++++++++OOOOOOOO",
"OOOOOOOO++OOOOOOOO++OOXX++XXOOOOOO++++++++++OO++++++++++OOOOOO++OOOOOOOO++OOOOOOOO++OOXX++XXOOOOOO++++++++++OO++++++++++OOOOOO++",
"OOOOOOOO++OOOOOOOO++OOXX++XXOOOOOO++++++++++OO++++++++++OOOOOO++OOOOOOOO++OOOOOOOO++OOXX++XXOOOOOO++++++++++OO++++++++++OOOOOO++",
"OO++OOOO++OOOOOO++OOOOOOXXOO++OOOO++++OO++++OOOOOO++++++OO++++++OO++OOOO++OOOOOO++OOOOOOXXOO++OOOO++++OO++++OOOOOO++++++OO++++++",
"OO++OOOO++OOOOOO++OOOOOOXXOO++OOOO++++OO++++OOOOOO++++++OO++++++OO++OOOO++OOOOOO++OOOOOOXXOO++OOOO++++OO++++OOOOOO++++++OO++++++",
"OO++++OOOO++++++++OOOOOOOOOOOOOOOOOO++OO++++OOXXXXOOXXXX++++++++OO++++OOOO++++++++OOOOOOOOOOOOOOOOOO++OO++++OOXXXXOOXXXX++++++++",
"OO++++OOOO++++++++OOOOOOOOOOOOOOOOOO++OO++++OOXXXXOOXXXX++++++++OO++++OOOO++++++++OOOOOOOOOOOOOOOOOO++OO++++OOXXXXOOXXXX++++++++",
"++++++++OOOOOO++++++OOOOOOOOOOOOOO++OO++++OOXX..  XX..  XX++++++++++++++OOOOOO++++++OOOOOOOOOOOOOO++OO++++OOXX..  XX..  XX++++++",
"++++++++OOOOOO++++++OOOOOOOOOOOOOO++OO++++OOXX..  XX..  XX++++++++++++++OOOOOO++++++OOOOOOOOOOOOOO++OO++++OOXX..  XX..  XX++++++",
"++++++++OOOO++++OOOOOOOOOOOOOOOO++OO++OOOO++XXXX..XXXX..XX++++++++++++++OOOO++++OOOOOOOOOOOOOOOO++OO++OOOO++XXXX..XXXX..XX++++++",
"++++++++OOOO++++OOOOOOOOOOOOOOOO++OO++OOOO++XXXX..XXXX..XX++++++++++++++OOOO++++OOOOOOOOOOOOOOOO++OO++OOOO++XXXX..XXXX..XX++++++",
"OO++XXXX++XXXX++OOOOOOOOOOOOOOOOOOOOOO++++++++XXXXXXXXXX++++++OOOO++XXXX++XXXX++OOOOOOOOOOOOOOOOOOOOOO++++++++XXXXXXXXXX++++++OO",
"OO++XXXX++XXXX++OOOOOOOOOOOOOOOOOOOOOO++++++++XXXXXXXXXX++++++OOOO++XXXX++XXXX++OOOOOOOOOOOOOOOOOOOOOO++++++++XXXXXXXXXX++++++OO",
"++XX..  XX..  XX++++++OOOOXX..OOXX..++++++++++OOXXXXXX++++++++++++XX..  XX..  XX++++++OOOOXX..OOXX..++++++++++OOXXXXXX++++++++++",
"++XX..  XX..  XX++++++OOOOXX..OOXX..++++++++++OOXXXXXX++++++++++++XX..  XX..  XX++++++OOOOXX..OOXX..++++++++++OOXXXXXX++++++++++",
"++XXXX..XXXX..XX++++++++OOXXXXXXXXXX++++++++++++++XX++++++OO++OO++XXXX..XXXX..XX++++++++OOXXXXXXXXXX++++++++++++++XX++++++OO++OO",
"++XXXX..XXXX..XX++++++++OOXXXXXXXXXX++++++++++++++XX++++++OO++OO++XXXX..XXXX..XX++++++++OOXXXXXXXXXX++++++++++++++XX++++++OO++OO",
"++OOXXXXXXXXXX++++OO++++++OOXXXXXXOO++++++OO++++++OOOOOOOO++++++++OOXXXXXXXXXX++++OO++++++OOXXXXXXOO++++++OO++++++OOOOOOOO++++++",
"++OOXXXXXXXXXX++++OO++++++OOXXXXXXOO++++++OO++++++OOOOOOOO++++++++OOXXXXXXXXXX++++OO++++++OOXXXXXXOO++++++OO++++++OOOOOOOO++++++",
"OOOO++XXXXXX++++OOOOOO++++++++XXOO++++++++++++++OOOO++OOOOXXOOXXOOOO++XXXXXX++++OOOOOO++++++++XXOO++++++++++++++OOOO++OOOOXXOOXX",
"OOOO++XXXXXX++++OOOOOO++++++++XXOO++++++++++++++OOOO++OOOOXXOOXXOOOO++XXXXXX++++OOOOOO++++++++XXOO++++++++++++++OOOO++OOOOXXOOXX",
"++OO++OOXXOOOO++OO++OOOO++++++OOOO++++OO++++++++++++++++OO++XX@@++OO++OOXXOOOO++OO++OOOO++++++OOOO++++OO++++++++++++++++OO++XX@@",
"++OO++OOXXOOOO++OO++OOOO++++++OOOO++++OO++++++++++++++++OO++XX@@++OO++OOXXOOOO++OO++OOOO++++++OOOO++++OO++++++++++++++++OO++XX@@",
"OOOOOOOO++OO++++OOOOOOOOOOOOOO++++OOOOOOOO++++++++++++OOOOOO++OOOOOOOOOO++OO++++OOOOOOOOOOOOOO++++OOOOOOOO++++++++++++OOOOOO++OO",
"OOOOOOOO++OO++++OOOOOOOOOOOOOO++++OOOOOOOO++++++++++++OOOOOO++OOOOOOOOOO++OO++++OOOOOOOOOOOOOO++++OOOOOOOO++++++++++++OOOOOO++OO",
"OOOOOOOO++OO++++++++++++OOOO++++++OO++++++++OOXXXX++XXXXOOOOOOOOOOOOOOOO++OO++++++++++++OOOO++++++OO++++++++OOXXXX++XXXXOOOOOOOO",
"OOOOOOOO++OO++++++++++++OOOO++++++OO++++++++OOXXXX++XXXXOOOOOOOOOOOOOOOO++OO++++++++++++OOOO++++++OO++++++++OOXXXX++XXXXOOOOOOOO",
"++++OOXX..OOXX..++++++++++++++++++++++++++OOXX..  XX..  XXOOOOOO++++OOXX..OOXX..++++++++++++++++++++++++++OOXX..  XX..  XXOOOOOO",
"++++OOXX..OOXX..++++++++++++++++++++++++++OOXX..  XX..  XXOOOOOO++++OOXX..OOXX..++++++++++++++++++++++++++OOXX..  XX..  XXOOOOOO",
"++OOOOXXXXXXXXXX++++++++++OOOO++++OOOOOO++++XXXX..XXXX..XX++++OO++OOOOXXXXXXXXXX++++++++++OOOO++++OOOOOO++++XXXX..XXXX..XX++++OO",
"++OOOOXXXXXXXXXX++++++++++OOOO++++OOOOOO++++XXXX..XXXX..XX++++OO++OOOOXXXXXXXXXX++++++++++OOOO++++OOOOOO++++XXXX..XXXX..XX++++OO",
"++OO++++XXXXXXOO++++++++++OOXXOOXXOOOOOOOO++++XXXXXXXXXX++++OOOO++OO++++XXXXXXOO++++++++++OOXXOOXXOOOOOOOO++++XXXXXXXXXX++++OOOO",
"++OO++++XXXXXXOO++++++++++OOXXOOXXOOOOOOOO++++XXXXXXXXXX++++OOOO++OO++++XXXXXXOO++++++++++OOXXOOXXOOOOOOOO++++XXXXXXXXXX++++OOOO",
"OOOOOOOOOOXXOOOOOOOO++++OOOOOOXXOO++++++OOOOOOOOXXXXXXOOOOOOOOOOOOOOOOOOOOXXOOOOOOOO++++OOOOOOXXOO++++++OOOOOOOOXXXXXXOOOOOOOOOO",
"OOOOOOOOOOXXOOOOOOOO++++OOOOOOXXOO++++++OOOOOOOOXXXXXXOOOOOOOOOOOOOOOOOOOOXXOOOOOOOO++++OOOOOOXXOO++++++OOOOOOOOXXXXXXOOOOOOOOOO",
"OOOOOOOO++++++OOOOOO++++++++OOOOOOOOOOOOOO++++OOOOXXOOOOOOOOOOOOOOOOOOOO++++++OOOOOO++++++++OOOOOOOOOOOOOO++++OOOOXXOOOOOOOOOOOO",
"OOOOOOOO++++++OOOOOO++++++++OOOOOOOOOOOOOO++++OOOOXXOOOOOOOOOOOOOOOOOOOO++++++OOOOOO++++++++OOOOOOOOOOOOOO++++OOOOXXOOOOOOOOOOOO",
"OOOOOOOOOOOOOOOOooOO++OOOOOOOOOOOOOOOOOOOOOOOOOOOOOOOOOOOOOOOOOOOOOOOOOOOOOOOOOOooOO++OOOOOOOOOOOOOOOOOOOOOOOOOOOOOOOOOOOOOOOOOO",
"OOOOOOOOOOOOOOOOooOO++OOOOOOOOOOOOOOOOOOOOOOOOOOOOOOOOOOOOOOOOOOOOOOOOOOOOOOOOOOooOO++OOOOOOOOOOOOOOOOOOOOOOOOOOOOOOOOOOOOOOOOOO",
"OOOOOOOOOOOOOOooOOOOOOOOOOOOOOOOooooOOOOOOOOOOOOOOOOOOOOOOOOOOOOOOOOOOOOOOOOOOooOOOOOOOOOOOOOOOOooooOOOOOOOOOOOOOOOOOOOOOOOOOOOO",
"OOOOOOOOOOOOOOooOOOOOOOOOOOOOOOOooooOOOOOOOOOOOOOOOOOOOOOOOOOOOOOOOOOOOOOOOOOOooOOOOOOOOOOOOOOOOooooOOOOOOOOOOOOOOOOOOOOOOOOOOOO",
"OOOOOOOOOOOOOOOOOOOOOO++OOOOOOOOooooooOOOOOOOOOOOOOOooOOOOOOOOOOOOOOOOOOOOOOOOOOOOOOOO++OOOOOOOOooooooOOOOOOOOOOOOOOooOOOOOOOOOO",
"OOOOOOOOOOOOOOOOOOOOOO++OOOOOOOOooooooOOOOOOOOOOOOOOooOOOOOOOOOOOOOOOOOOOOOOOOOOOOOOOO++OOOOOOOOooooooOOOOOOOOOOOOOOooOOOOOOOOOO",
"OOOOXXOOXXOOOOOOOOOOXXXXOOXXXXOOooOOOOOOOOOOOOOOOOOOOOOOOOOOOOOOOOOOXXOOXXOOOOOOOOOOXXXXOOXXXXOOooOOOOOOOOOOOOOOOOOOOOOOOOOOOOOO",
"OOOOXXOOXXOOOOOOOOOOXXXXOOXXXXOOooOOOOOOOOOOOOOOOOOOOOOOOOOOOOOOOOOOXXOOXXOOOOOOOOOOXXXXOOXXXXOOooOOOOOOOOOOOOOOOOOOOOOOOOOOOOOO",
"OOOOOOXXOOOOooooooXX..  XX..  XXOOOOOOOOOOOO++++++OOOOXX..++XX..OOOOOOXXOOOOooooooXX..  XX..  XXOOOOOOOOOOOO++++++OOOOXX..++XX..",
"OOOOOOXXOOOOooooooXX..  XX..  XXOOOOOOOOOOOO++++++OOOOXX..++XX..OOOOOOXXOOOOooooooXX..  XX..  XXOOOOOOOOOOOO++++++OOOOXX..++XX..",
"OOOOOOOOOOOOOOOOOOXXXX..XXXX..XXOO++OOOOOO++OOOOOOOO++XXXXXXXXXXOOOOOOOOOOOOOOOOOOXXXX..XXXX..XXOO++OOOOOO++OOOOOOOO++XXXXXXXXXX",
"OOOOOOOOOOOOOOOOOOXXXX..XXXX..XXOO++OOOOOO++OOOOOOOO++XXXXXXXXXXOOOOOOOOOOOOOOOOOOXXXX..XXXX..XXOO++OOOOOO++OOOOOOOO++XXXXXXXXXX",
"OOOOOOOOOO++OOOOOOOOXXXXXXXXXXOO++OOOOOOOOOO++++++++++++XXXXXXOOOOOOOOOOOO++OOOOOOOOXXXXXXXXXXOO++OOOOOOOOOO++++++++++++XXXXXXOO",
"OOOOOOOOOO++OOOOOOOOXXXXXXXXXXOO++OOOOOOOOOO++++++++++++XXXXXXOOOOOOOOOOOO++OOOOOOOOXXXXXXXXXXOO++OOOOOOOOOO++++++++++++XXXXXXOO",
"OOOOOO++OOOOOOOOOOOO++XXXXXXOOOO++++++OO++++++++++++++++++XX++OOOOOOOO++OOOOOOOOOOOO++XXXXXXOOOO++++++OO++++++++++++++++++XX++OO",
"OOOOOO++OOOOOOOOOOOO++XXXXXXOOOO++++++OO++++++++++++++++++XX++OOOOOOOO++OOOOOOOOOOOO++XXXXXXOOOO++++++OO++++++++++++++++++XX++OO",
"OOOO++++++OOOOOOOOOOOOOOXXOOOO++++OOOOOO++OO++++++++++OOOOOOOOOOOOOO++++++OOOOOOOOOOOOOOXXOOOO++++OOOOOO++OO++++++++++OOOOOOOOOO",
"OOOO++++++OOOOOOOOOOOOOOXXOOOO++++OOOOOO++OO++++++++++OOOOOOOOOOOOOO++++++OOOOOOOOOOOOOOXXOOOO++++OOOOOO++OO++++++++++OOOOOOOOOO",
"OOOOOOOO++OOOOOOOOOOOOOOOOOOOOOO++++XX..++XX..++++OO++++OOOOOOOOOOOOOOOO++OOOOOOOOOOOOOOOOOOOOOO++++XX..++XX..++++OO++++OOOOOOOO",
"OOOOOOOO++OOOOOOOOOOOOOOOOOOOOOO++++XX..++XX..++++OO++++OOOOOOOOOOOOOOOO++OOOOOOOOOOOOOOOOOOOOOO++++XX..++XX..++++OO++++OOOOOOOO",
"OOOOXX..OOXX..OO++++++++OOOOOOOO++++XXXXXXXXXX++++++++++++OOOO++OOOOXX..OOXX..OO++++++++OOOOOOOO++++XXXXXXXXXX++++++++++++OOOO++",
"OOOOXX..OOXX..OO++++++++OOOOOOOO++++XXXXXXXXXX++++++++++++OOOO++OOOOXX..OOXX..OO++++++++OOOOOOOO++++XXXXXXXXXX++++++++++++OOOO++",
"OOOOXXXXXXXXXXOO++++OOOOOOOOOOOOOOOO++XXXXXX++++OO++++++XXOOXXOOOOOOXXXXXXXXXXOO++++OOOOOOOOOOOOOOOO++XXXXXX++++OO++++++XXOOXXOO",
"OOOOXXXXXXXXXXOO++++OOOOOOOOOOOOOOOO++XXXXXX++++OO++++++XXOOXXOOOOOOXXXXXXXXXXOO++++OOOOOOOOOOOOOOOO++XXXXXX++++OO++++++XXOOXXOO",
"OOOOOOXXXXXXOOOOOOOO++OOOOOOOOOOOOOO++++XX++++++++OO++++OOXXOO++OOOOOOXXXXXXOOOOOOOO++OOOOOOOOOOOOOO++++XX++++++++OO++++OOXXOO++",
"OOOOOOXXXXXXOOOOOOOO++OOOOOOOOOOOOOO++++XX++++++++OO++++OOXXOO++OOOOOOXXXXXXOOOOOOOO++OOOOOOOOOOOOOO++++XX++++++++OO++++OOXXOO++",
"++++++OOXXOO++++OOOOOO++OOOOOOOOOO++++++++OO++++++++++++OOOOOOOO++++++OOXXOO++++OOOOOO++OOOOOOOOOO++++++++OO++++++++++++OOOOOOOO",
"++++++OOXXOO++++OOOOOO++OOOOOOOOOO++++++++OO++++++++++++OOOOOOOO++++++OOXXOO++++OOOOOO++OOOOOOOOOO++++++++OO++++++++++++OOOOOOOO",
"OOOOOOOO++OOOOOOOO++OOXX++XXOOOOOO++++++++++OO++++++++++OOOOOO++OOOOOOOO++OOOOOOOO++OOXX++XXOOOOOO++++++++++OO++++++++++OOOOOO++",
"OOOOOOOO++OOOOOOOO++OOXX++XXOOOOOO++++++++++OO++++++++++OOOOOO++OOOOOOOO++OOOOOOOO++OOXX++XXOOOOOO++++++++++OO++++++++++OOOOOO++",
"OO++OOOO++OOOOOO++OOOOOOXXOO++OOOO++++OO++++OOOOOO++++++OO++++++OO++OOOO++OOOOOO++OOOOOOXXOO++OOOO++++OO++++OOOOOO++++++OO++++++",
"OO++OOOO++OOOOOO++OOOOOOXXOO++OOOO++++OO++++OOOOOO++++++OO++++++OO++OOOO++OOOOOO++OOOOOOXXOO++OOOO++++OO++++OOOOOO++++++OO++++++",
"OO++++OOOO++++++++OOOOOOOOOOOOOOOOOO++OO++++OOXXXXOOXXXX++++++++OO++++OOOO++++++++OOOOOOOOOOOOOOOOOO++OO++++OOXXXXOOXXXX++++++++",
"OO++++OOOO++++++++OOOOOOOOOOOOOOOOOO++OO++++OOXXXXOOXXXX++++++++OO++++OOOO++++++++OOOOOOOOOOOOOOOOOO++OO++++OOXXXXOOXXXX++++++++",
"++++++++OOOOOO++++++OOOOOOOOOOOOOO++OO++++OOXX..  XX..  XX++++++++++++++OOOOOO++++++OOOOOOOOOOOOOO++OO++++OOXX..  XX..  XX++++++",
"++++++++OOOOOO++++++OOOOOOOOOOOOOO++OO++++OOXX..  XX..  XX++++++++++++++OOOOOO++++++OOOOOOOOOOOOOO++OO++++OOXX..  XX..  XX++++++",
"++++++++OOOO++++OOOOOOOOOOOOOOOO++OO++OOOO++XXXX..XXXX..XX++++++++++++++OOOO++++OOOOOOOOOOOOOOOO++OO++OOOO++XXXX..XXXX..XX++++++",
"++++++++OOOO++++OOOOOOOOOOOOOOOO++OO++OOOO++XXXX..XXXX..XX++++++++++++++OOOO++++OOOOOOOOOOOOOOOO++OO++OOOO++XXXX..XXXX..XX++++++",
"OO++XXXX++XXXX++OOOOOOOOOOOOOOOOOOOOOO++++++++XXXXXXXXXX++++++OOOO++XXXX++XXXX++OOOOOOOOOOOOOOOOOOOOOO++++++++XXXXXXXXXX++++++OO",
"OO++XXXX++XXXX++OOOOOOOOOOOOOOOOOOOOOO++++++++XXXXXXXXXX++++++OOOO++XXXX++XXXX++OOOOOOOOOOOOOOOOOOOOOO++++++++XXXXXXXXXX++++++OO",
"++XX..  XX..  XX++++++OOOOXX..OOXX..++++++++++OOXXXXXX++++++++++++XX..  XX..  XX++++++OOOOXX..OOXX..++++++++++OOXXXXXX++++++++++",
"++XX..  XX..  XX++++++OOOOXX..OOXX..++++++++++OOXXXXXX++++++++++++XX..  XX..  XX++++++OOOOXX..OOXX..++++++++++OOXXXXXX++++++++++",
"++XXXX..XXXX..XX++++++++OOXXXXXXXXXX++++++++++++++XX++++++OO++OO++XXXX..XXXX..XX++++++++OOXXXXXXXXXX++++++++++++++XX++++++OO++OO",
"++XXXX..XXXX..XX++++++++OOXXXXXXXXXX++++++++++++++XX++++++OO++OO++XXXX..XXXX..XX++++++++OOXXXXXXXXXX++++++++++++++XX++++++OO++OO",
"++OOXXXXXXXXXX++++OO++++++OOXXXXXXOO++++++OO++++++OOOOOOOO++++++++OOXXXXXXXXXX++++OO++++++OOXXXXXXOO++++++OO++++++OOOOOOOO++++++",
"++OOXXXXXXXXXX++++OO++++++OOXXXXXXOO++++++OO++++++OOOOOOOO++++++++OOXXXXXXXXXX++++OO++++++OOXXXXXXOO++++++OO++++++OOOOOOOO++++++",
"OOOO++XXXXXX++++OOOOOO++++++++XXOO++++++++++++++OOOO++OOOOXXOOXXOOOO++XXXXXX++++OOOOOO++++++++XXOO++++++++++++++OOOO++OOOOXXOOXX",
"OOOO++XXXXXX++++OOOOOO++++++++XXOO++++++++++++++OOOO++OOOOXXOOXXOOOO++XXXXXX++++OOOOOO++++++++XXOO++++++++++++++OOOO++OOOOXXOOXX",
"++OO++OOXXOOOO++OO++OOOO++++++OOOO++++OO++++++++++++++++OO++XX@@++OO++OOXXOOOO++OO++OOOO++++++OOOO++++OO++++++++++++++++OO++XX@@",
"++OO++OOXXOOOO++OO++OOOO++++++OOOO++++OO++++++++++++++++OO++XX@@++OO++OOXXOOOO++OO++OOOO++++++OOOO++++OO++++++++++++++++OO++XX@@"
};
