/* XPM */
static char *_93dca048c8749e1a88c458dd332b5c1SLdcZsgNk6z7P1lh[] = {
/* columns rows colors chars-per-pixel */
"96 96 18 1 ",
"  c black",
". c black",
"X c None",
"o c #FFF0E5",
"O c #EAD2C0",
"+ c #C6AAFF",
"@ c #AAAAFF",
"# c #C1AE9E",
"$ c #8DAAFF",
"% c #71AAFF",
"& c #55AAFF",
"* c #38AAFF",
"= c #02BDFF",
"- c #938478",
"; c #317DA1",
": c #705D4F",
"> c #2A5D81",
", c #1C467A",
/* pixels */
"****--ooOOOOOOOOOOOOOOOOoo--********--ooOOOOOOOOOOOOOOOOoo--********--ooOOOOOOOOOOOOOOOOoo--****",
"****--ooOOOOOOOOOOOOOOOOoo--********--ooOOOOOOOOOOOOOOOOoo--********--ooOOOOOOOOOOOOOOOOoo--****",
"****::OOooooooooooooooooOO--********::OOooooooooooooooooOO--********::OOooooooooooooooooOO--****",
"****::OOooooooooooooooooOO--********::OOooooooooooooooooOO--********::OOooooooooooooooooOO--****",
"****::####################::********::####################::********::####################::****",
"****::####################::********::####################::********::####################::****",
"&&&&::--------------------::&&**&&&&::--------------------::&&**&&&&::--------------------::&&**",
"&&&&::--------------------::&&**&&&&::--------------------::&&**&&&&::--------------------::&&**",
"&&&&&&::::::::::::::::::::&&&&&&&&&&&&::::::::::::::::::::&&&&&&&&&&&&::::::::::::::::::::&&&&&&",
"&&&&&&::::::::::::::::::::&&&&&&&&&&&&::::::::::::::::::::&&&&&&&&&&&&::::::::::::::::::::&&&&&&",
"&&&&&&&&::::##::##::##::&&&&&&&&&&&&&&&&::::##::##::##::&&&&&&&&&&&&&&&&::::##::##::##::&&&&&&&&",
"&&&&&&&&::::##::##::##::&&&&&&&&&&&&&&&&::::##::##::##::&&&&&&&&&&&&&&&&::::##::##::##::&&&&&&&&",
"&&&&&&&&::--##--##--##--&&&&&&&&&&&&&&&&::--##--##--##--&&&&&&&&&&&&&&&&::--##--##--##--&&&&&&&&",
"&&&&&&&&::--##--##--##--&&&&&&&&&&&&&&&&::--##--##--##--&&&&&&&&&&&&&&&&::--##--##--##--&&&&&&&&",
"&&&&&&&&::--OO--OO--OO--&&&&&&&&&&&&&&&&::--OO--OO--OO--&&&&&&&&&&&&&&&&::--OO--OO--OO--&&&&&&&&",
"&&&&&&&&::--OO--OO--OO--&&&&&&&&&&&&&&&&::--OO--OO--OO--&&&&&&&&&&&&&&&&::--OO--OO--OO--&&&&&&&&",
"&&&&&&&&::##OO##OO##oo--&&&&&&&&&&&&&&&&::##OO##OO##oo--&&&&&&&&&&&&&&&&::##OO##OO##oo--&&&&&&&&",
"&&&&&&&&::##OO##OO##oo--&&&&&&&&&&&&&&&&::##OO##OO##oo--&&&&&&&&&&&&&&&&::##OO##OO##oo--&&&&&&&&",
"%%%%%%%%::##OO##oo##oo--%%%%%%%%%%%%%%%%::##OO##oo##oo--%%%%%%%%%%%%%%%%::##OO##oo##oo--%%%%%%%%",
"%%%%%%%%::##OO##oo##oo--%%%%%%%%%%%%%%%%::##OO##oo##oo--%%%%%%%%%%%%%%%%::##OO##oo##oo--%%%%%%%%",
"%%%%%%%%::##OO##OO##oo--%%%%%%%%%%%%%%%%::##OO##OO##oo--%%%%%%%%%%%%%%%%::##OO##OO##oo--%%%%%%%%",
"%%%%%%%%::##OO##OO##oo--%%%%%%%%%%%%%%%%::##OO##OO##oo--%%%%%%%%%%%%%%%%::##OO##OO##oo--%%%%%%%%",
"%%%%%%%%::##OO##oo##oo--%%%%%%%%%%%%%%%%::##OO##oo##oo--%%%%%%%%%%%%%%%%::##OO##oo##oo--%%%%%%%%",
"%%%%%%%%::##OO##oo##oo--%%%%%%%%%%%%%%%%::##OO##oo##oo--%%%%%%%%%%%%%%%%::##OO##oo##oo--%%%%%%%%",
"%%%%%%%%::##OO##oo##oo--%%%%%%%%%%%%%%%%::##OO##oo##oo--%%%%%%%%%%%%%%%%::##OO##oo##oo--%%%%%%%%",
"%%%%%%%%::##OO##oo##oo--%%%%%%%%%%%%%%%%::##OO##oo##oo--%%%%%%%%%%%%%%%%::##OO##oo##oo--%%%%%%%%",
"$$$$$$$$::##OO##oo##oo--$$$$$$$$$$$$$$$$::##OO##oo##oo--$$$$$$$$$$$$$$$$::##OO##oo##oo--$$$$$$$$",
"$$$$$$$$::##OO##oo##oo--$$$$$$$$$$$$$$$$::##OO##oo##oo--$$$$$$$$$$$$$$$$::##OO##oo##oo--$$$$$$$$",
"$$$$$$$$::##OO##oo##oo--$$$$$$$$$$$$$$$$::##OO##oo##oo--$$$$$$$$$$$$$$$$::##OO##oo##oo--$$$$$$$$",
"$$$$$$$$::##OO##oo##oo--$$$$$$$$$$$$$$$$::##OO##oo##oo--$$$$$$$$$$$$$$$$::##OO##oo##oo--$$$$$$$$",
"$$$$$$$$::##OO##oo##oo--$$$$$$$$$$$$$$$$::##OO##oo##oo--$$$$$$$$$$$$$$$$::##OO##oo##oo--$$$$$$$$",
"$$$$$$$$::##OO##oo##oo--$$$$$$$$$$$$$$$$::##OO##oo##oo--$$$$$$$$$$$$$$$$::##OO##oo##oo--$$$$$$$$",
"@@@@@@@@::##OO##oo##oo--@@@@@@@@@@@@@@@@::##OO##oo##oo--@@@@@@@@@@@@@@@@::##OO##oo##oo--@@@@@@@@",
"@@@@@@@@::##OO##oo##oo--@@@@@@@@@@@@@@@@::##OO##oo##oo--@@@@@@@@@@@@@@@@::##OO##oo##oo--@@@@@@@@",
"@@@@@@@@::##OO##oo##oo--@@@@@@@@@@@@@@@@::##OO##oo##oo--@@@@@@@@@@@@@@@@::##OO##oo##oo--@@@@@@@@",
"@@@@@@@@::##OO##oo##oo--@@@@@@@@@@@@@@@@::##OO##oo##oo--@@@@@@@@@@@@@@@@::##OO##oo##oo--@@@@@@@@",
"@@@@@@@@::##OO##oo##oo--@@@@@@@@@@@@@@@@::##OO##oo##oo--@@@@@@@@@@@@@@@@::##OO##oo##oo--@@@@@@@@",
"@@@@@@@@::##OO##oo##oo--@@@@@@@@@@@@@@@@::##OO##oo##oo--@@@@@@@@@@@@@@@@::##OO##oo##oo--@@@@@@@@",
"++++++++::##OO##oo##oo--++++++++++++++++::##OO##oo##oo--++++++++++++++++::##OO##oo##oo--++++++++",
"++++++++::##OO##oo##oo--++++++++++++++++::##OO##oo##oo--++++++++++++++++::##OO##oo##oo--++++++++",
"++++++++::##OO##oo##oo--++++++++++++++++::##OO##oo##oo--++++++++++++++++::##OO##oo##oo--++++++++",
"++++++++::##OO##oo##oo--++++++++++++++++::##OO##oo##oo--++++++++++++++++::##OO##oo##oo--++++++++",
"++++++++::##OO##oo##oo--++++++++++++++++::##OO##oo##oo--++++++++++++++++::##OO##oo##oo--++++++++",
"++++++++::##OO##oo##oo--++++++++++++++++::##OO##oo##oo--++++++++++++++++::##OO##oo##oo--++++++++",
"++++++++::##OO##oo##oo--++++++++++++++++::##OO##oo##oo--++++++++++++++++::##OO##oo##oo--++++++++",
"++++++++::##OO##oo##oo--++++++++++++++++::##OO##oo##oo--++++++++++++++++::##OO##oo##oo--++++++++",
"++++++++::##OO##oo##oo--++++++++++++++++::##OO##oo##oo--++++++++++++++++::##OO##oo##oo--++++++++",
"++++++++::##OO##oo##oo--++++++++++++++++::##OO##oo##oo--++++++++++++++++::##OO##oo##oo--++++++++",
"++++++++::##OO##oo##oo--++++++++++++++++::##OO##oo##oo--++++++++++++++++::##OO##oo##oo--++++++++",
"++++++++::##OO##oo##oo--++++++++++++++++::##OO##oo##oo--++++++++++++++++::##OO##oo##oo--++++++++",
"++++++++::##OO##oo##oo--++++++++++++++++::##OO##oo##oo--++++++++++++++++::##OO##oo##oo--++++++++",
"++++++++::##OO##oo##oo--++++++++++++++++::##OO##oo##oo--++++++++++++++++::##OO##oo##oo--++++++++",
"++++++++::##OO##oo##oo--++++++++++++++++::##OO##oo##oo--++++++++++++++++::##OO##oo##oo--++++++++",
"++++++++::##OO##oo##oo--++++++++++++++++::##OO##oo##oo--++++++++++++++++::##OO##oo##oo--++++++++",
"++++++++::##OO##oo##oo--++++++++++++++++::##OO##oo##oo--++++++++++++++++::##OO##oo##oo--++++++++",
"++++++++::##OO##oo##oo--++++++++++++++++::##OO##oo##oo--++++++++++++++++::##OO##oo##oo--++++++++",
"++++++++::##OO##oo##oo--++++++++++++++++::##OO##oo##oo--++++++++++++++++::##OO##oo##oo--++++++++",
"++++++++::##OO##oo##oo--++++++++++++++++::##OO##oo##oo--++++++++++++++++::##OO##oo##oo--++++++++",
"++++++++::##OO##oo##oo--++++++++++++++++::##OO##oo##oo--++++++++++++++++::##OO##oo##oo--++++++++",
"++++++++::##OO##oo##oo--++++++++++++++++::##OO##oo##oo--++++++++++++++++::##OO##oo##oo--++++++++",
"++++++++::##OO##OO##oo--++++++++++++++++::##OO##OO##oo--++++++++++++++++::##OO##OO##oo--++++++++",
"++++++++::##OO##OO##oo--++++++++++++++++::##OO##OO##oo--++++++++++++++++::##OO##OO##oo--++++++++",
"++++++++::##OO##oo##oo--++++++++++++++++::##OO##oo##oo--++++++++++++++++::##OO##oo##oo--++++++++",
"++++++++::##OO##oo##oo--++++++++++++++++::##OO##oo##oo--++++++++++++++++::##OO##oo##oo--++++++++",
">>>>>>>>::##OO##OO##oo-->>>>>>>>>>>>>>>>::##OO##OO##oo-->>>>>>>>>>>>>>>>::##OO##OO##oo-->>>>>>>>",
">>>>>>>>::##OO##OO##oo-->>>>>>>>>>>>>>>>::##OO##OO##oo-->>>>>>>>>>>>>>>>::##OO##OO##oo-->>>>>>>>",
";;;;;;;;::##OO##OO##OO--;;;;;;;;;;;;;;;;::##OO##OO##OO--;;;;;;;;;;;;;;;;::##OO##OO##OO--;;;;;;;;",
";;;;;;;;::##OO##OO##OO--;;;;;;;;;;;;;;;;::##OO##OO##OO--;;;;;;;;;;;;;;;;::##OO##OO##OO--;;;;;;;;",
";;;;;;::::--OO--OO--OO----;;;;;;;;;;;;::::--OO--OO--OO----;;;;;;;;;;;;::::--OO--OO--OO----;;;;;;",
";;;;;;::::--OO--OO--OO----;;;;;;;;;;;;::::--OO--OO--OO----;;;;;;;;;;;;::::--OO--OO--OO----;;;;;;",
";;;;::OO::--##--##--##--OO--;;;;;;;;::OO::--##--##--##--OO--;;;;;;;;::OO::--##--##--##--OO--;;;;",
";;;;::OO::--##--##--##--OO--;;;;;;;;::OO::--##--##--##--OO--;;;;;;;;::OO::--##--##--##--OO--;;;;",
";;>>::OO--::::::::::::OOOO--;;;;;;>>::OO--::::::::::::OOOO--;;;;;;>>::OO--::::::::::::OOOO--;;;;",
";;>>::OO--::::::::::::OOOO--;;;;;;>>::OO--::::::::::::OOOO--;;;;;;>>::OO--::::::::::::OOOO--;;;;",
">>>>::ooOOOOOOOOOOOOOOOOoo--;;;;>>>>::ooOOOOOOOOOOOOOOOOoo--;;;;>>>>::ooOOOOOOOOOOOOOOOOoo--;;;;",
">>>>::ooOOOOOOOOOOOOOOOOoo--;;;;>>>>::ooOOOOOOOOOOOOOOOOoo--;;;;>>>>::ooOOOOOOOOOOOOOOOOoo--;;;;",
">>>>::OOooooooooooooooooOO::;;;;>>>>::OOooooooooooooooooOO::;;;;>>>>::OOooooooooooooooooOO::;;;;",
">>>>::OOooooooooooooooooOO::;;;;>>>>::OOooooooooooooooooOO::;;;;>>>>::OOooooooooooooooooOO::;;;;",
">>>>::--------------------::;;;;>>>>::--------------------::;;;;>>>>::--------------------::;;;;",
">>>>::--------------------::;;;;>>>>::--------------------::;;;;>>>>::--------------------::;;;;",
">>>>::::::::::::::::::::::::;;;;>>>>::::::::::::::::::::::::;;;;>>>>::::::::::::::::::::::::;;;;",
">>>>::::::::::::::::::::::::;;;;>>>>::::::::::::::::::::::::;;;;>>>>::::::::::::::::::::::::;;;;",
">>>>>>>>>>>>>>>>>>>>>>>>>>>>>>>>>>>>>>>>>>>>>>>>>>>>>>>>>>>>>>>>>>>>>>>>>>>>>>>>>>>>>>>>>>>>>>>>",
">>>>>>>>>>>>>>>>>>>>>>>>>>>>>>>>>>>>>>>>>>>>>>>>>>>>>>>>>>>>>>>>>>>>>>>>>>>>>>>>>>>>>>>>>>>>>>>>",
"================================================================================================",
"================================================================================================",
";;;;;;;;;;;;;;;;;;;;;;;;;;;;;;;;;;;;;;;;;;;;;;;;;;;;;;;;;;;;;;;;;;;;;;;;;;;;;;;;;;;;;;;;;;;;;;;;",
";;;;;;;;;;;;;;;;;;;;;;;;;;;;;;;;;;;;;;;;;;;;;;;;;;;;;;;;;;;;;;;;;;;;;;;;;;;;;;;;;;;;;;;;;;;;;;;;",
",,,,,,,,,,,,,,,,,,,,,,,,,,,,,,,,,,,,,,,,,,,,,,,,,,,,,,,,,,,,,,,,,,,,,,,,,,,,,,,,,,,,,,,,,,,,,,,,",
",,,,,,,,,,,,,,,,,,,,,,,,,,,,,,,,,,,,,,,,,,,,,,,,,,,,,,,,,,,,,,,,,,,,,,,,,,,,,,,,,,,,,,,,,,,,,,,,",
"XXXXXXXXXXXXXXXXXXXXXXXXXXXXXXXXXXXXXXXXXXXXXXXXXXXXXXXXXXXXXXXXXXXXXXXXXXXXXXXXXXXXXXXXXXXXXXXX",
"XXXXXXXXXXXXXXXXXXXXXXXXXXXXXXXXXXXXXXXXXXXXXXXXXXXXXXXXXXXXXXXXXXXXXXXXXXXXXXXXXXXXXXXXXXXXXXXX",
"................................................................................................",
"................................................................................................",
"                                                                                                ",
"                                                                                                "
};
