/* XPM */
static char *_19bf11cafc945d3ad8635559c7e96a2N5Fvbl3VLpiiPzZa[] = {
/* columns rows colors chars-per-pixel */
"128 128 5 1 ",
"  c white",
". c red",
"X c black",
"o c None",
"O c #110026",
/* pixels */
"XXXXXXXXXXXXXXXXXXXXXXXXXXXXXXXXXXXXXXXXXXXXXXXXXXXXXXXXXXXXXXXXXXXXXXXXXXXXXXXXXXXXXXXXXXXXXXXXXXXXXXXXXXXXXXXXXXXXXXXXXXXXXXXX",
"XXXXXXXXXXXXXXXXXXXXXXXXXXXXXXXXXXXXXXXXXXXXXXXXXXXXXXXXXXXXXXXXXXXXXXXXXXXXXXXXXXXXXXXXXXXXXXXXXXXXXXXXXXXXXXXXXXXXXXXXXXXXXXXX",
"XXXXXXXXXXXXXXXXXXXXXXXXXXXXXXXXXXXXXXXXXXXXXXXXXXXXXXXXXXXXXXXXXXXXXXXXXXXXXXXXXXXXXXXXXXXXXXXXXXXXXXXXXXXXXXXXXXXXXXXXXXXXXXXX",
"XXXXXXXXXXXXXXXXXXXXXXXXXXXXXXXXXXXXXXXXXXXXXXXXXXXXXXXXXXXXXXXXXXXXXXXXXXXXXXXXXXXXXXXXXXXXXXXXXXXXXXXXXXXXXXXXXXXXXXXXXXXXXXXX",
"XXXXXXXXXXXXXXXXXXXXXXXXXXXXXXXXXXXXXXXXXXXXXXXXXXXXXXXXXXXXXXXXXXXXXXXXXXXXXXXXXXXXXXXXXXXXXXXXXXXXXXXXXXXXXXXXXXXXXXXXXXXXXXXX",
"XXXXXXXXXXXXXXXXXXXXXXXXXXXXXXXXXXXXXXXXXXXXXXXXXXXXXXXXXXXXXXXXXXXXXXXXXXXXXXXXXXXXXXXXXXXXXXXXXXXXXXXXXXXXXXXXXXXXXXXXXXXXXXXX",
"XXXXXXXXXXXXXXXXXXXXXXXXXXXXXXXXXXXXXXXXXXXXXXXXXXXXXXXXXXXXXXXXXXXXXXXXXXXXXXXXXXXXXXXXXXXXXXXXXXXXXXXXXXXXXXXXXXXXXXXXXXXXXXXX",
"XXXXXXXXXXXXXXXXXXXXXXXXXXXXXXXXXXXXXXXXXXXXXXXXXXXXXXXXXXXXXXXXXXXXXXXXXXXXXXXXXXXXXXXXXXXXXXXXXXXXXXXXXXXXXXXXXXXXXXXXXXXXXXXX",
"XXXXXXXXXXXXXXXXXXXXXXXXXXXXXXXXXXXXXXXXXXXXXXXXXXXXXXXXXXXXXXXXXXXXXXXXXXXXXXXXXXXXXXXXXXXXXXXXXXXXXXXXXXXXXXXXXXXXXXXXXXXXXXXX",
"XXXXXXXXXXXXXXXXXXXXXXXXXXXXXXXXXXXXXXXXXXXXXXXXXXXXXXXXXXXXXXXXXXXXXXXXXXXXXXXXXXXXXXXXXXXXXXXXXXXXXXXXXXXXXXXXXXXXXXXXXXXXXXXX",
"XXXXXXXXXXXXXXXXXXXXXXXXXXXXXXXXXXXXXXXXXXXXXXXXXXXXXXXXXXXXXXXXXXXXXXXXXXXXXXXXXXXXXXXXXXXXXXXXXXXXXXXXXXXXXXXXXXXXXXXXXXXXXXXX",
"XXXXXXXXXXXXXXXXXXXXXXXXXXXXXXXXXXXXXXXXXXXXXXXXXXXXXXXXXXXXXXXXXXXXXXXXXXXXXXXXXXXXXXXXXXXXXXXXXXXXXXXXXXXXXXXXXXXXXXXXXXXXXXXX",
"XXXXXXXXXXXXXXXXXXXXXXXXXXXXXXXXXXXXXXXXXXXXXXXXXXXXXXXXXXXXXXXXXXXXXXXXXXXXXXXXXXXXXXXXXXXXXXXXXXXXXXXXXXXXXXXXXXXXXXXXXXXXXXXX",
"XXXXXXXXXXXXXXXXXXXXXXXXXXXXXXXXXXXXXXXXXXXXXXXXXXXXXXXXXXXXXXXXXXXXXXXXXXXXXXXXXXXXXXXXXXXXXXXXXXXXXXXXXXXXXXXXXXXXXXXXXXXXXXXX",
"XXXXXXXXXXXXXXXXXXXXXXXXXXXXXXXXXXXXXXXXXXXXXXXXXXXXXXXXXXXXXXXXXXXXXXXXXXXXXXXXXXXXXXXXXXXXXXXXXXXXXXXXXXXXXXXXXXXXXXXXXXXXXXXX",
"XXXXXXXXXXXXXXXXXXXXXXXXXXXXXXXXXXXXXXXXXXXXXXXXXXXXXXXXXXXXXXXXXXXXXXXXXXXXXXXXXXXXXXXXXXXXXXXXXXXXXXXXXXXXXXXXXXXXXXXXXXXXXXXX",
"XXXXXXXXXX                                                OOOOOOOOoo                                                  XXXXXXXXXX",
"XXXXXXXXXX                                                OOOOOOOOoo                                                  XXXXXXXXXX",
"XXXXXXXXXX                                              OOooooooOOOO                                                  XXXXXXXXXX",
"XXXXXXXXXX                                              OOooooooOOOO                                                  XXXXXXXXXX",
"XXXXXXXXXX                                              OO..OO..OOOO                                                  XXXXXXXXXX",
"XXXXXXXXXX                                              OO..OO..OOOO                                                  XXXXXXXXXX",
"XXXXXXXXXX                                              ooOOOO..OOOO                                                  XXXXXXXXXX",
"XXXXXXXXXX                                              ooOOOO..OOOO                                                  XXXXXXXXXX",
"XXXXXXXXXX                                                    OOOOOO                                                  XXXXXXXXXX",
"XXXXXXXXXX                                                    OOOOOO                                                  XXXXXXXXXX",
"XXXXXXXXXX                                                  OOOOOOOOoo                                                XXXXXXXXXX",
"XXXXXXXXXX                                                  OOOOOOOOoo                                                XXXXXXXXXX",
"XXXXXXXXXX                                                ooOOOOOOOOoo                                                XXXXXXXXXX",
"XXXXXXXXXX                                                ooOOOOOOOOoo                                                XXXXXXXXXX",
"XXXXXXXXXX                                                OOOOOOOOOOoo                                                XXXXXXXXXX",
"XXXXXXXXXX                                                OOOOOOOOOOoo                                                XXXXXXXXXX",
"XXXXXXXXXX                                            ooOOOOOOOOOOOOOOOOoo                                            XXXXXXXXXX",
"XXXXXXXXXX                                            ooOOOOOOOOOOOOOOOOoo                                            XXXXXXXXXX",
"XXXXXXXXXX                                        ooOOOOOOOOOOOOOOOOOOOOOOOOOOoo                                      XXXXXXXXXX",
"XXXXXXXXXX                                        ooOOOOOOOOOOOOOOOOOOOOOOOOOOoo                                      XXXXXXXXXX",
"XXXXXXXXXX                                    ooOOOOOOOOOOOOOOOOOOOOOOOOOOOOOOOOOOoo                                  XXXXXXXXXX",
"XXXXXXXXXX                                    ooOOOOOOOOOOOOOOOOOOOOOOOOOOOOOOOOOOoo                                  XXXXXXXXXX",
"XXXXXXXXXX                                  OOOOOOOOOOOOOOOOOOOOOOOOOOOOOOOOOOOOOOOOOO                                XXXXXXXXXX",
"XXXXXXXXXX                                  OOOOOOOOOOOOOOOOOOOOOOOOOOOOOOOOOOOOOOOOOO                                XXXXXXXXXX",
"XXXXXXXXXX                                OOOOOOOOOOOOOOOOOOOOOOOOOOOOOOOOOOOOOOOOOOOOOO                              XXXXXXXXXX",
"XXXXXXXXXX                                OOOOOOOOOOOOOOOOOOOOOOOOOOOOOOOOOOOOOOOOOOOOOO                              XXXXXXXXXX",
"XXXXXXXXXX                              OOOOOOOOOOOOOOOOOOOOOOOOOOOOOOOOOOOOOOOOOOOOOOOOOO                            XXXXXXXXXX",
"XXXXXXXXXX                              OOOOOOOOOOOOOOOOOOOOOOOOOOOOOOOOOOOOOOOOOOOOOOOOOO                            XXXXXXXXXX",
"XXXXXXXXXX                            OOOOOOOOOOOOOOOOOOOOOOOOOOOOOOOOOOOOOOOOOOOOOOOOOOOOOO                          XXXXXXXXXX",
"XXXXXXXXXX                            OOOOOOOOOOOOOOOOOOOOOOOOOOOOOOOOOOOOOOOOOOOOOOOOOOOOOO                          XXXXXXXXXX",
"XXXXXXXXXX                          OOOOOOOOOOOOOOOOOOOOOOOOOOOOOOOOOOOOOOOOOOOOOOOOOOOOOOOOOO                        XXXXXXXXXX",
"XXXXXXXXXX                          OOOOOOOOOOOOOOOOOOOOOOOOOOOOOOOOOOOOOOOOOOOOOOOOOOOOOOOOOO                        XXXXXXXXXX",
"XXXXXXXXXX                        OOOOOOOOOOOOOOOOOOOOOOOOOOOOOOOOOOOOOOOOOOOOOOOOOOOOOOOOOOOOOO                      XXXXXXXXXX",
"XXXXXXXXXX                        OOOOOOOOOOOOOOOOOOOOOOOOOOOOOOOOOOOOOOOOOOOOOOOOOOOOOOOOOOOOOO                      XXXXXXXXXX",
"XXXXXXXXXX                      OOOOOOOOOOOOOOOOOOOOOOOOOOOOOOOOOOOOOOOOOOOOOOOOOOOOOOOOOOOOOOOOOO                    XXXXXXXXXX",
"XXXXXXXXXX                      OOOOOOOOOOOOOOOOOOOOOOOOOOOOOOOOOOOOOOOOOOOOOOOOOOOOOOOOOOOOOOOOOO                    XXXXXXXXXX",
"XXXXXXXXXX                    OOOOOOOOOOOOOOOOOOOOOOOOOOOOOOOOOOOOOOOOOOOOOOOOOOOOOOOOOOOOOOOOOOOOOO                  XXXXXXXXXX",
"XXXXXXXXXX                    OOOOOOOOOOOOOOOOOOOOOOOOOOOOOOOOOOOOOOOOOOOOOOOOOOOOOOOOOOOOOOOOOOOOOO                  XXXXXXXXXX",
"XXXXXXXXXX                  OOOOOOOOOOOOOOOOOOOOOOOOOOOOOOOOOOOOOOOOOOOOOOOOOOOOOOOOOOOOOOOOOOOOOOOOoo                XXXXXXXXXX",
"XXXXXXXXXX                  OOOOOOOOOOOOOOOOOOOOOOOOOOOOOOOOOOOOOOOOOOOOOOOOOOOOOOOOOOOOOOOOOOOOOOOOoo                XXXXXXXXXX",
"XXXXXXXXXX                OOOOOOOOOOOOOOOOOOOOOOOOOOOOOOOOOOOOOOOOOOOOOOOOOOOOOOOOOOOOOOOOOOOOOOOOOOOO                XXXXXXXXXX",
"XXXXXXXXXX                OOOOOOOOOOOOOOOOOOOOOOOOOOOOOOOOOOOOOOOOOOOOOOOOOOOOOOOOOOOOOOOOOOOOOOOOOOOO                XXXXXXXXXX",
"XXXXXXXXXX              ooOOOOOOOOOOOOOOOOOOOOOOOOOOOOOOOOOOOOOOOOOOOOOOOOOOOOOOOOOOOOOOOOOOOOOOOOOOOOoo              XXXXXXXXXX",
"XXXXXXXXXX              ooOOOOOOOOOOOOOOOOOOOOOOOOOOOOOOOOOOOOOOOOOOOOOOOOOOOOOOOOOOOOOOOOOOOOOOOOOOOOoo              XXXXXXXXXX",
"XXXXXXXXXX              OOOOOOOOOOOOOOOOOOOOOOOOOOOOOOOOOOOOOOOOOOOOOOOOOOOOOOOOOOOOOOOOOOOOOOOOOOOOOOOO              XXXXXXXXXX",
"XXXXXXXXXX              OOOOOOOOOOOOOOOOOOOOOOOOOOOOOOOOOOOOOOOOOOOOOOOOOOOOOOOOOOOOOOOOOOOOOOOOOOOOOOOO              XXXXXXXXXX",
"XXXXXXXXXX            ooOOOOOOOOOOOOOOOOOOOOOOOOOOOOOOOOOOOOOOOOOOOOOOOOOOOOOOOOOOOOOOOOOOOOOOOOOOOOOOOOoo            XXXXXXXXXX",
"XXXXXXXXXX            ooOOOOOOOOOOOOOOOOOOOOOOOOOOOOOOOOOOOOOOOOOOOOOOOOOOOOOOOOOOOOOOOOOOOOOOOOOOOOOOOOoo            XXXXXXXXXX",
"XXXXXXXXXX            OOOOOOOOOOOOOOOOOOOOOOOOOOOOOOOOOOOOOOOOOOOOOOOOOOOOOOOOOOOOOOOOOOOOOOOOOOOOOOOOOOOO            XXXXXXXXXX",
"XXXXXXXXXX            OOOOOOOOOOOOOOOOOOOOOOOOOOOOOOOOOOOOOOOOOOOOOOOOOOOOOOOOOOOOOOOOOOOOOOOOOOOOOOOOOOOO            XXXXXXXXXX",
"XXXXXXXXXX          ooOOOOOOOOOOOOOOOOOOOOOOOOOOOOOOOOOOOOOOOOOOOOOOOOOOOOOOOOOOOOOOOOOOOOOOOOOOOOOOOOOOOOoo          XXXXXXXXXX",
"XXXXXXXXXX          ooOOOOOOOOOOOOOOOOOOOOOOOOOOOOOOOOOOOOOOOOOOOOOOOOOOOOOOOOOOOOOOOOOOOOOOOOOOOOOOOOOOOOoo          XXXXXXXXXX",
"XXXXXXXXXX          OOOOOOOOOOOOOOOOOOOOOOOOOOOOOOOOOOOOOOOOOOOOOOOOOOOOOOOOOOOOOOOOOOOOOOOOOOOOOOOOOOOOOOOO          XXXXXXXXXX",
"XXXXXXXXXX          OOOOOOOOOOOOOOOOOOOOOOOOOOOOOOOOOOOOOOOOOOOOOOOOOOOOOOOOOOOOOOOOOOOOOOOOOOOOOOOOOOOOOOOO          XXXXXXXXXX",
"XXXXXXXXXX          OOOOOOOOOOOOOOOOOOOOOOOOooooooOOOOOOOOOOOOOOOOOOOOOOOOOOOOOOOOOOOOOOOOOOOOOOOOOOOOOOOOOO          XXXXXXXXXX",
"XXXXXXXXXX          OOOOOOOOOOOOOOOOOOOOOOOOooooooOOOOOOOOOOOOOOOOOOOOOOOOOOOOOOOOOOOOOOOOOOOOOOOOOOOOOOOOOO          XXXXXXXXXX",
"XXXXXXXXXX        ooOOOOOOOOOOOOOOOOOOOOOOooOOOOOOooOOOOOOOOOOOOOOOOOOOOOOOOOOooooooooOOOOOOOOOOOOOOOOOOOOOOoo        XXXXXXXXXX",
"XXXXXXXXXX        ooOOOOOOOOOOOOOOOOOOOOOOooOOOOOOooOOOOOOOOOOOOOOOOOOOOOOOOOOooooooooOOOOOOOOOOOOOOOOOOOOOOoo        XXXXXXXXXX",
"XXXXXXXXXX        OOOOOOOOOOOOOOOOOOOOOOooOOOOOOOOOOooOOOOOOOOOOOOOOOOOOOOOOooOOOOOOOOooOOOOOOOOOOOOOOOOOOOOOO        XXXXXXXXXX",
"XXXXXXXXXX        OOOOOOOOOOOOOOOOOOOOOOooOOOOOOOOOOooOOOOOOOOOOOOOOOOOOOOOOooOOOOOOOOooOOOOOOOOOOOOOOOOOOOOOO        XXXXXXXXXX",
"XXXXXXXXXX        OOOOOOOOOOOOOOOOOOOOOOOOOOOOOOOOOOOOOOOOOOOOOOOOOOOOOOOOOOOOOOOOOOOOOOooOOOOOOOOOOOOOOOOOOOO        XXXXXXXXXX",
"XXXXXXXXXX        OOOOOOOOOOOOOOOOOOOOOOOOOOOOOOOOOOOOOOOOOOOOOOOOOOOOOOOOOOOOOOOOOOOOOOooOOOOOOOOOOOOOOOOOOOO        XXXXXXXXXX",
"XXXXXXXXXX      ooOOOOOOOOOOOOOOOOOOOOOOOOOOOOOOOOOOOOOOOOOOOOOOOOOOOOOOOOOOOOOOOOOOOOOOOOOOOOOOOOOOOOOOOOOOOOoo      XXXXXXXXXX",
"XXXXXXXXXX      ooOOOOOOOOOOOOOOOOOOOOOOOOOOOOOOOOOOOOOOOOOOOOOOOOOOOOOOOOOOOOOOOOOOOOOOOOOOOOOOOOOOOOOOOOOOOOoo      XXXXXXXXXX",
"XXXXXXXXXX      OOOOOOOOOOOOOOOOOOOOOOOOOOOOOOOOOOOOOOOOOOOOOOOOOOOOOOOOOOOOOOOOOOOOOOOOOOOOOOOOOOOOOOOOOOOOOOOO      XXXXXXXXXX",
"XXXXXXXXXX      OOOOOOOOOOOOOOOOOOOOOOOOOOOOOOOOOOOOOOOOOOOOOOOOOOOOOOOOOOOOOOOOOOOOOOOOOOOOOOOOOOOOOOOOOOOOOOOO      XXXXXXXXXX",
"XXXXXXXXXX      OOOOOOOOOOOOOOOOOOOOOOOOOOOOOOOOOOOOOOOOOOOOOOOOOOOOOOOOOOOOOOOOOOOOOOOOOOOOOOOOOOOOOOOOOOOOOOOO      XXXXXXXXXX",
"XXXXXXXXXX      OOOOOOOOOOOOOOOOOOOOOOOOOOOOOOOOOOOOOOOOOOOOOOOOOOOOOOOOOOOOOOOOOOOOOOOOOOOOOOOOOOOOOOOOOOOOOOOO      XXXXXXXXXX",
"XXXXXXXXXX      OOOOOOOOOOOOOOOOOOOOOOOOOOOOOOOOOOOOOOOOOOOOOOOOOOOOOOOOOOOOOOOOOOOOOOOOOOOOOOOOOOOOOOOOOOOOOOOO      XXXXXXXXXX",
"XXXXXXXXXX      OOOOOOOOOOOOOOOOOOOOOOOOOOOOOOOOOOOOOOOOOOOOOOOOOOOOOOOOOOOOOOOOOOOOOOOOOOOOOOOOOOOOOOOOOOOOOOOO      XXXXXXXXXX",
"XXXXXXXXXX    ooOOOOOOOOOOOOOOOOOOOOOOOOOOOOOOOOOOOOOOOOOOOOOOOOOOOOOOOOOOOOOOOOOOOOOOOOOOOOOOOOOOOOOOOOOOOOOOOOoo    XXXXXXXXXX",
"XXXXXXXXXX    ooOOOOOOOOOOOOOOOOOOOOOOOOOOOOOOOOOOOOOOOOOOOOOOOOOOOOOOOOOOOOOOOOOOOOOOOOOOOOOOOOOOOOOOOOOOOOOOOOoo    XXXXXXXXXX",
"XXXXXXXXXX    OOOOOOOOOOOOOOOOOOOOOOOOOOOOOOOOOOOOOOOOOOOOOOOOOOOOOOOOOOOOOOOOOOOOOOOOOOOOOOOOOOOOOOOOOOOOOOOOOOOO    XXXXXXXXXX",
"XXXXXXXXXX    OOOOOOOOOOOOOOOOOOOOOOOOOOOOOOOOOOOOOOOOOOOOOOOOOOOOOOOOOOOOOOOOOOOOOOOOOOOOOOOOOOOOOOOOOOOOOOOOOOOO    XXXXXXXXXX",
"XXXXXXXXXX    OOOOOOOOOOOOOOOOOOOOOOOOOOOOOOOOOOOOOOOOOOOOOOOOOOOOOOOOOOOOOOOOOOOOOOOOOOOOOOOOOOOOOOOOOOOOOOOOOOOO    XXXXXXXXXX",
"XXXXXXXXXX    OOOOOOOOOOOOOOOOOOOOOOOOOOOOOOOOOOOOOOOOOOOOOOOOOOOOOOOOOOOOOOOOOOOOOOOOOOOOOOOOOOOOOOOOOOOOOOOOOOOO    XXXXXXXXXX",
"XXXXXXXXXX    OOOOOOOOOOOOOOOOOOOOOOOOOOOOOOOOooOOOOOOOOOOOOOOOOOOOOOOOOOOOOOOOOOOooOOOOOOOOOOOOOOOOOOOOOOOOOOOOOO    XXXXXXXXXX",
"XXXXXXXXXX    OOOOOOOOOOOOOOOOOOOOOOOOOOOOOOOOooOOOOOOOOOOOOOOOOOOOOOOOOOOOOOOOOOOooOOOOOOOOOOOOOOOOOOOOOOOOOOOOOO    XXXXXXXXXX",
"XXXXXXXXXX    OOOOOOOOOOOOOOOOOOOOOOOOOOOOOOOOooooOOOOOOOOOOOOOOOOOOOOOOOOOOOOOOooooOOOOOOOOOOOOOOOOOOOOOOOOOOOOOOoo  XXXXXXXXXX",
"XXXXXXXXXX    OOOOOOOOOOOOOOOOOOOOOOOOOOOOOOOOooooOOOOOOOOOOOOOOOOOOOOOOOOOOOOOOooooOOOOOOOOOOOOOOOOOOOOOOOOOOOOOOoo  XXXXXXXXXX",
"XXXXXXXXXX  ooOOOOOOOOOOOOOOOOOOOOOOOOOOOOOOOOOOoo..OOOOOOOOOOooOOOOOOOOooOOOOoo..OOOOOOOOOOOOOOOOOOOOOOOOOOOOOOOOoo  XXXXXXXXXX",
"XXXXXXXXXX  ooOOOOOOOOOOOOOOOOOOOOOOOOOOOOOOOOOOoo..OOOOOOOOOOooOOOOOOOOooOOOOoo..OOOOOOOOOOOOOOOOOOOOOOOOOOOOOOOOoo  XXXXXXXXXX",
"XXXXXXXXXX  ooOOOOOOOOOOOOOOOOOOOOOOOOOOOOOOOOOOOOooooOOooOOoo..ooOOoo....oo....OOOOOOOOOOOOOOOOOOOOOOOOOOOOOOOOOOOO  XXXXXXXXXX",
"XXXXXXXXXX  ooOOOOOOOOOOOOOOOOOOOOOOOOOOOOOOOOOOOOooooOOooOOoo..ooOOoo....oo....OOOOOOOOOOOOOOOOOOOOOOOOOOOOOOOOOOOO  XXXXXXXXXX",
"XXXXXXXXXX  OOOOOOOOOOOOOOOOOOOOOOOOOOOOOOOOOOOOOOOO........................ooOOOOOOOOOOOOOOOOOOOOOOOOOOOOOOOOOOOOOO  XXXXXXXXXX",
"XXXXXXXXXX  OOOOOOOOOOOOOOOOOOOOOOOOOOOOOOOOOOOOOOOO........................ooOOOOOOOOOOOOOOOOOOOOOOOOOOOOOOOOOOOOOO  XXXXXXXXXX",
"XXXXXXXXXX  OOOOOOOOOOOOOOOOOOOOOOOOOOOOOOOOOOOOOOOOOOooOO..ooOOoo....ooOOooOOOOOOOOOOOOOOOOOOOOOOOOOOOOOOOOOOOOOOOO  XXXXXXXXXX",
"XXXXXXXXXX  OOOOOOOOOOOOOOOOOOOOOOOOOOOOOOOOOOOOOOOOOOooOO..ooOOoo....ooOOooOOOOOOOOOOOOOOOOOOOOOOOOOOOOOOOOOOOOOOOO  XXXXXXXXXX",
"XXXXXXXXXX  OOOOOOOOOOOOOOOOOOOOOOOOOOOOOOOOOOOOOOOOOOOOOOooOOOOOOOOooOOOOOOOOOOOOOOOOOOOOOOOOOOOOOOOOOOOOOOOOOOOOOO  XXXXXXXXXX",
"XXXXXXXXXX  OOOOOOOOOOOOOOOOOOOOOOOOOOOOOOOOOOOOOOOOOOOOOOooOOOOOOOOooOOOOOOOOOOOOOOOOOOOOOOOOOOOOOOOOOOOOOOOOOOOOOO  XXXXXXXXXX",
"XXXXXXXXXX  OOOOOOOOOOOOOOOOOOOOOOOOOOOOOOOOOOOOOOOOOOOOOOOOOOOOOOOOOOOOOOOOOOOOOOOOOOOOOOOOOOOOOOOOOOOOOOOOOOOOOOOO  XXXXXXXXXX",
"XXXXXXXXXX  OOOOOOOOOOOOOOOOOOOOOOOOOOOOOOOOOOOOOOOOOOOOOOOOOOOOOOOOOOOOOOOOOOOOOOOOOOOOOOOOOOOOOOOOOOOOOOOOOOOOOOOO  XXXXXXXXXX",
"XXXXXXXXXX  OOOOOOOOOOOOOOOOOOOOOOOOOOOOOOOOOOOOOOOOOOOOOOOOOOOOOOOOOOOOOOOOOOOOOOOOOOOOOOOOOOOOOOOOOOOOOOOOOOOOOOOOooXXXXXXXXXX",
"XXXXXXXXXX  OOOOOOOOOOOOOOOOOOOOOOOOOOOOOOOOOOOOOOOOOOOOOOOOOOOOOOOOOOOOOOOOOOOOOOOOOOOOOOOOOOOOOOOOOOOOOOOOOOOOOOOOooXXXXXXXXXX",
"XXXXXXXXXXooOOOOOOOOOOOOOOOOOOOOOOOOOOOOOOOOOOOOOOOOOOOOOOOOOOOOOOOOOOOOOOOOOOOOOOOOOOOOOOOOOOOOOOOOOOOOOOOOOOOOOOOOooXXXXXXXXXX",
"XXXXXXXXXXooOOOOOOOOOOOOOOOOOOOOOOOOOOOOOOOOOOOOOOOOOOOOOOOOOOOOOOOOOOOOOOOOOOOOOOOOOOOOOOOOOOOOOOOOOOOOOOOOOOOOOOOOooXXXXXXXXXX",
"XXXXXXXXXXooOOOOOOOOOOOOOOOOOOOOOOOOOOOOOOOOOOOOOOOOOOOOOOOOOOOOOOOOOOOOOOOOOOOOOOOOOOOOOOOOOOOOOOOOOOOOOOOOOOOOOOOOooXXXXXXXXXX",
"XXXXXXXXXXooOOOOOOOOOOOOOOOOOOOOOOOOOOOOOOOOOOOOOOOOOOOOOOOOOOOOOOOOOOOOOOOOOOOOOOOOOOOOOOOOOOOOOOOOOOOOOOOOOOOOOOOOooXXXXXXXXXX",
"XXXXXXXXXXooOOOOOOOOOOOOOOOOOOOOOOOOOOOOOOOOOOOOOOOOOOOOOOOOOOOOOOOOOOOOOOOOOOOOOOOOOOOOOOOOOOOOOOOOOOOOOOOOOOOOOOOOooXXXXXXXXXX",
"XXXXXXXXXXooOOOOOOOOOOOOOOOOOOOOOOOOOOOOOOOOOOOOOOOOOOOOOOOOOOOOOOOOOOOOOOOOOOOOOOOOOOOOOOOOOOOOOOOOOOOOOOOOOOOOOOOOooXXXXXXXXXX",
"XXXXXXXXXXooOOOOOOOOOOOOOOOOOOOOOOOOOOOOOOOOOOOOOOOOOOOOOOOOOOOOOOOOOOOOOOOOOOOOOOOOOOOOOOOOOOOOOOOOOOOOOOOOOOOOOOOOooXXXXXXXXXX",
"XXXXXXXXXXooOOOOOOOOOOOOOOOOOOOOOOOOOOOOOOOOOOOOOOOOOOOOOOOOOOOOOOOOOOOOOOOOOOOOOOOOOOOOOOOOOOOOOOOOOOOOOOOOOOOOOOOOooXXXXXXXXXX",
"XXXXXXXXXXooOOOOOOOOOOOOOOOOOOOOOOOOOOOOOOOOOOOOOOOOOOOOOOOOOOOOOOOOOOOOOOOOOOOOOOOOOOOOOOOOOOOOOOOOOOOOOOOOOOOOOOOOooXXXXXXXXXX",
"XXXXXXXXXXooOOOOOOOOOOOOOOOOOOOOOOOOOOOOOOOOOOOOOOOOOOOOOOOOOOOOOOOOOOOOOOOOOOOOOOOOOOOOOOOOOOOOOOOOOOOOOOOOOOOOOOOOooXXXXXXXXXX",
"XXXXXXXXXXooOOOOOOOOOOOOOOOOOOOOOOOOOOOOOOOOOOOOOOOOOOOOOOOOOOOOOOOOOOOOOOOOOOOOOOOOOOOOOOOOOOOOOOOOOOOOOOOOOOOOOOOOooXXXXXXXXXX",
"XXXXXXXXXXooOOOOOOOOOOOOOOOOOOOOOOOOOOOOOOOOOOOOOOOOOOOOOOOOOOOOOOOOOOOOOOOOOOOOOOOOOOOOOOOOOOOOOOOOOOOOOOOOOOOOOOOOooXXXXXXXXXX",
"XXXXXXXXXXooOOOOOOOOOOOOOOOOOOOOOOOOOOOOOOOOOOOOOOOOOOOOOOOOOOOOOOOOOOOOOOOOOOOOOOOOOOOOOOOOOOOOOOOOOOOOOOOOOOOOOOOOooXXXXXXXXXX",
"XXXXXXXXXXooOOOOOOOOOOOOOOOOOOOOOOOOOOOOOOOOOOOOOOOOOOOOOOOOOOOOOOOOOOOOOOOOOOOOOOOOOOOOOOOOOOOOOOOOOOOOOOOOOOOOOOOOooXXXXXXXXXX",
"XXXXXXXXXXooOOOOOOOOOOOOOOOOOOOOOOOOOOOOOOOOOOOOOOOOOOOOOOOOOOOOOOOOOOOOOOOOOOOOOOOOOOOOOOOOOOOOOOOOOOOOOOOOOOOOOOOOooXXXXXXXXXX",
"XXXXXXXXXXooOOOOOOOOOOOOOOOOOOOOOOOOOOOOOOOOOOOOOOOOOOOOOOOOOOOOOOOOOOOOOOOOOOOOOOOOOOOOOOOOOOOOOOOOOOOOOOOOOOOOOOOOooXXXXXXXXXX",
"XXXXXXXXXXooOOOOOOOOOOOOOOOOOOOOOOOOOOOOOOOOOOOOOOOOOOOOOOOOOOOOOOOOOOOOOOOOOOOOOOOOOOOOOOOOOOOOOOOOOOOOOOOOOOOOOOOOooXXXXXXXXXX",
"XXXXXXXXXXooOOOOOOOOOOOOOOOOOOOOOOOOOOOOOOOOOOOOOOOOOOOOOOOOOOOOOOOOOOOOOOOOOOOOOOOOOOOOOOOOOOOOOOOOOOOOOOOOOOOOOOOOooXXXXXXXXXX"
};
