/* XPM */
static char *ddbd98ac2a324d6fa78a3ad2582c6f12kIiqwnmM355e4spd[] = {
/* columns rows colors chars-per-pixel */
"96 96 9 1 ",
"  c black",
". c black",
"X c None",
"o c #FFF3E8",
"O c #7C7C7C",
"+ c gray40",
"@ c #3E3E3E",
"# c gray15",
"$ c #001721",
/* pixels */
"$$$$$$$$$$$$$$$$$$$$$$$$$$$$$$$$$$$$$$$$$$$$$$$$$$$$$$$$$$$$$$$$$$$$$$$$$$$$$$$$$$$$$$$$$$$$$$$$",
"$$$$$$$$$$$$$$$$$$$$$$$$$$$$$$$$$$$$$$$$$$$$$$$$$$$$$$$$$$$$$$$$$$$$$$$$$$$$$$$$$$$$$$$$$$$$$$$$",
"$$$$$$$$$$oooooooooo$$$$$$$$$$$$$$$$$$$$$$oooooooooo$$$$$$$$$$$$$$$$$$$$$$oooooooooo$$$$$$$$$$$$",
"$$$$$$$$$$oooooooooo$$$$$$$$$$$$$$$$$$$$$$oooooooooo$$$$$$$$$$$$$$$$$$$$$$oooooooooo$$$$$$$$$$$$",
"$$$$$$$$oooooooooooooo$$$$$$$$$$$$$$$$$$oooooooooooooo$$$$$$$$$$$$$$$$$$oooooooooooooo$$$$$$$$$$",
"$$$$$$$$oooooooooooooo$$$$$$$$$$$$$$$$$$oooooooooooooo$$$$$$$$$$$$$$$$$$oooooooooooooo$$$$$$$$$$",
"$$$$$$oooo$$oooooo$$oooo$$$$$$$$$$$$$$oooo$$oooooo$$oooo$$$$$$$$$$$$$$oooo$$oooooo$$oooo$$$$$$$$",
"$$$$$$oooo$$oooooo$$oooo$$$$$$$$$$$$$$oooo$$oooooo$$oooo$$$$$$$$$$$$$$oooo$$oooooo$$oooo$$$$$$$$",
"$$$$$$oooo$$oooooo$$oooo$$$$$$$$$$$$$$oooo$$oooooo$$oooo$$$$$$$$$$$$$$oooo$$oooooo$$oooo$$$$$$$$",
"$$$$$$oooo$$oooooo$$oooo$$$$$$$$$$$$$$oooo$$oooooo$$oooo$$$$$$$$$$$$$$oooo$$oooooo$$oooo$$$$$$$$",
"$$$$$$ooOO$$oo$$oo$$OOoo$$$$$$$$$$$$$$ooOO$$oo$$oo$$OOoo$$$$$$$$$$$$$$ooOO$$oo$$oo$$OOoo$$$$$$$$",
"$$$$$$ooOO$$oo$$oo$$OOoo$$$$$$$$$$$$$$ooOO$$oo$$oo$$OOoo$$$$$$$$$$$$$$ooOO$$oo$$oo$$OOoo$$$$$$$$",
"$$$$$$$$oooooo$$oooooo$$$$$$$$$$$$$$$$$$oooooo$$oooooo$$$$$$$$$$$$$$$$$$oooooo$$oooooo$$$$$$$$$$",
"$$$$$$$$oooooo$$oooooo$$$$$$$$$$$$$$$$$$oooooo$$oooooo$$$$$$$$$$$$$$$$$$oooooo$$oooooo$$$$$$$$$$",
"$$$$$$$$$$oooooooooo$$$$$$$$$$$$$$$$$$$$$$oooooooooo$$$$$$$$$$$$$$$$$$$$$$oooooooooo$$$$$$$$$$$$",
"$$$$$$$$$$oooooooooo$$$$$$$$$$$$$$$$$$$$$$oooooooooo$$$$$$$$$$$$$$$$$$$$$$oooooooooo$$$$$$$$$$$$",
"$$$$$$$$$$$$oo$$oo$$$$$$$$$$$$$$$$$$$$$$$$$$oo$$oo$$$$$$$$$$$$$$$$$$$$$$$$$$oo$$oo$$$$$$$$$$$$$$",
"$$$$$$$$$$$$oo$$oo$$$$$$$$$$$$$$$$$$$$$$$$$$oo$$oo$$$$$$$$$$$$$$$$$$$$$$$$$$oo$$oo$$$$$$$$$$$$$$",
"$$$$$$$$$$$$$$OO$$$$$$$$$$$$$$$$$$$$$$$$$$$$$$OO$$$$$$$$$$$$$$$$$$$$$$$$$$$$$$OO$$$$$$$$$$$$$$$$",
"$$$$$$$$$$$$$$OO$$$$$$$$$$$$$$$$$$$$$$$$$$$$$$OO$$$$$$$$$$$$$$$$$$$$$$$$$$$$$$OO$$$$$$$$$$$$$$$$",
"$$$$$$OOOOoo$$oo$$ooOOOO$$$$$$$$$$$$$$OOOOoo$$oo$$ooOOOO$$$$$$$$$$$$$$OOOOoo$$oo$$ooOOOO$$$$$$$$",
"$$$$$$OOOOoo$$oo$$ooOOOO$$$$$$$$$$$$$$OOOOoo$$oo$$ooOOOO$$$$$$$$$$$$$$OOOOoo$$oo$$ooOOOO$$$$$$$$",
"$$$$oo$$oo$$OOooOO$$oo$$oo$$$$$$$$$$oo$$oo$$OOooOO$$oo$$oo$$$$$$$$$$oo$$oo$$OOooOO$$oo$$oo$$$$$$",
"$$$$oo$$oo$$OOooOO$$oo$$oo$$$$$$$$$$oo$$oo$$OOooOO$$oo$$oo$$$$$$$$$$oo$$oo$$OOooOO$$oo$$oo$$$$$$",
"$$OO$$$$OOooooOOooooOO$$$$OO$$$$$$OO$$$$OOooooOOooooOO$$$$OO$$$$$$OO$$$$OOooooOOooooOO$$$$OO$$$$",
"$$OO$$$$OOooooOOooooOO$$$$OO$$$$$$OO$$$$OOooooOOooooOO$$$$OO$$$$$$OO$$$$OOooooOOooooOO$$$$OO$$$$",
"$$oo$$oo$$$$OOooOO$$$$oo$$oo$$$$$$oo$$oo$$$$OOooOO$$$$oo$$oo$$$$$$oo$$oo$$$$OOooOO$$$$oo$$oo$$$$",
"$$oo$$oo$$$$OOooOO$$$$oo$$oo$$$$$$oo$$oo$$$$OOooOO$$$$oo$$oo$$$$$$oo$$oo$$$$OOooOO$$$$oo$$oo$$$$",
"$$oo$$OOooooooOOooooooOO$$oo$$$$$$oo$$OOooooooOOooooooOO$$oo$$$$$$oo$$OOooooooOOooooooOO$$oo$$$$",
"$$oo$$OOooooooOOooooooOO$$oo$$$$$$oo$$OOooooooOOooooooOO$$oo$$$$$$oo$$OOooooooOOooooooOO$$oo$$$$",
"$$oo$$$$$$$$OOooOO$$$$$$$$oo$$$$$$oo$$$$$$$$OOooOO$$$$$$$$oo$$$$$$oo$$$$$$$$OOooOO$$$$$$$$oo$$$$",
"$$oo$$$$$$$$OOooOO$$$$$$$$oo$$$$$$oo$$$$$$$$OOooOO$$$$$$$$oo$$$$$$oo$$$$$$$$OOooOO$$$$$$$$oo$$$$",
"$$OO$$OOooooOOOOOOooooOO$$OO$$$$$$OO$$OOooooOOOOOOooooOO$$OO$$$$$$OO$$OOooooOOOOOOooooOO$$OO$$$$",
"$$OO$$OOooooOOOOOOooooOO$$OO$$$$$$OO$$OOooooOOOOOOooooOO$$OO$$$$$$OO$$OOooooOOOOOOooooOO$$OO$$$$",
"OO$$$$$$$$$$$$oo$$$$$$$$$$$$OO$$OO$$$$$$$$$$$$oo$$$$$$$$$$$$OO$$OO$$$$$$$$$$$$oo$$$$$$$$$$$$OO$$",
"OO$$$$$$$$$$$$oo$$$$$$$$$$$$OO$$OO$$$$$$$$$$$$oo$$$$$$$$$$$$OO$$OO$$$$$$$$$$$$oo$$$$$$$$$$$$OO$$",
"oo$$$$OOooooOOOOOOooooOO$$$$oo$$oo$$$$OOooooOOOOOOooooOO$$$$oo$$oo$$$$OOooooOOOOOOooooOO$$$$oo$$",
"oo$$$$OOooooOOOOOOooooOO$$$$oo$$oo$$$$OOooooOOOOOOooooOO$$$$oo$$oo$$$$OOooooOOOOOOooooOO$$$$oo$$",
"oo$$$$$$$$$$$$oo$$$$$$$$$$$$oo$$oo$$$$$$$$$$$$oo$$$$$$$$$$$$oo$$oo$$$$$$$$$$$$oo$$$$$$$$$$$$oo$$",
"oo$$$$$$$$$$$$oo$$$$$$$$$$$$oo$$oo$$$$$$$$$$$$oo$$$$$$$$$$$$oo$$oo$$$$$$$$$$$$oo$$$$$$$$$$$$oo$$",
"oo$$$$OOooooooOOooooooOO$$$$oo$$oo$$$$OOooooooOOooooooOO$$$$oo$$oo$$$$OOooooooOOooooooOO$$$$oo$$",
"oo$$$$OOooooooOOooooooOO$$$$oo$$oo$$$$OOooooooOOooooooOO$$$$oo$$oo$$$$OOooooooOOooooooOO$$$$oo$$",
"oo$$$$oo$$$$oooooo$$$$oo$$$$oo$$oo$$$$oo$$$$oooooo$$$$oo$$$$oo$$oo$$$$oo$$$$oooooo$$$$oo$$$$oo$$",
"oo$$$$oo$$$$oooooo$$$$oo$$$$oo$$oo$$$$oo$$$$oooooo$$$$oo$$$$oo$$oo$$$$oo$$$$oooooo$$$$oo$$$$oo$$",
"OO$$$$oooooooooooooooooo$$$$OO$$OO$$$$oooooooooooooooooo$$$$OO$$OO$$$$oooooooooooooooooo$$$$OO$$",
"OO$$$$oooooooooooooooooo$$$$OO$$OO$$$$oooooooooooooooooo$$$$OO$$OO$$$$oooooooooooooooooo$$$$OO$$",
"oooo$$$$OO$$oooooo$$OO$$$$oooooooooo$$$$OO$$oooooo$$OO$$$$oooooooooo$$$$OO$$oooooo$$OO$$$$oooooo",
"oooo$$$$OO$$oooooo$$OO$$$$oooooooooo$$$$OO$$oooooo$$OO$$$$oooooooooo$$$$OO$$oooooo$$OO$$$$oooooo",
"oo$$$$$$oo$$$$$$$$$$oo$$$$$$oooooo$$$$$$oo$$$$$$$$$$oo$$$$$$oooooo$$$$$$oo$$$$$$$$$$oo$$$$$$oooo",
"oo$$$$$$oo$$$$$$$$$$oo$$$$$$oooooo$$$$$$oo$$$$$$$$$$oo$$$$$$oooooo$$$$$$oo$$$$$$$$$$oo$$$$$$oooo",
"oo$$$$$$oo$$$$$$$$$$oo$$$$$$ooOOoo$$$$$$oo$$$$$$$$$$oo$$$$$$ooOOoo$$$$$$oo$$$$$$$$$$oo$$$$$$ooOO",
"oo$$$$$$oo$$$$$$$$$$oo$$$$$$ooOOoo$$$$$$oo$$$$$$$$$$oo$$$$$$ooOOoo$$$$$$oo$$$$$$$$$$oo$$$$$$ooOO",
"oo$$$$$$oo$$$$$$$$$$oo$$$$$$oo$$oo$$$$$$oo$$$$$$$$$$oo$$$$$$oo$$oo$$$$$$oo$$$$$$$$$$oo$$$$$$oo$$",
"oo$$$$$$oo$$$$$$$$$$oo$$$$$$oo$$oo$$$$$$oo$$$$$$$$$$oo$$$$$$oo$$oo$$$$$$oo$$$$$$$$$$oo$$$$$$oo$$",
"$$$$$$$$oo$$$$$$$$$$oo$$$$$$$$$$$$$$$$$$oo$$$$$$$$$$oo$$$$$$$$$$$$$$$$$$oo$$$$$$$$$$oo$$$$$$$$$$",
"$$$$$$$$oo$$$$$$$$$$oo$$$$$$$$$$$$$$$$$$oo$$$$$$$$$$oo$$$$$$$$$$$$$$$$$$oo$$$$$$$$$$oo$$$$$$$$$$",
"$$$$$$$$oo$$$$$$$$$$oo$$$$$$$$$$$$$$$$$$oo$$$$$$$$$$oo$$$$$$$$$$$$$$$$$$oo$$$$$$$$$$oo$$$$$$$$$$",
"$$$$$$$$oo$$$$$$$$$$oo$$$$$$$$$$$$$$$$$$oo$$$$$$$$$$oo$$$$$$$$$$$$$$$$$$oo$$$$$$$$$$oo$$$$$$$$$$",
"$$$$$$$$oo$$$$$$$$$$oo$$$$$$$$$$$$$$$$$$oo$$$$$$$$$$oo$$$$$$$$$$$$$$$$$$oo$$$$$$$$$$oo$$$$$$$$$$",
"$$$$$$$$oo$$$$$$$$$$oo$$$$$$$$$$$$$$$$$$oo$$$$$$$$$$oo$$$$$$$$$$$$$$$$$$oo$$$$$$$$$$oo$$$$$$$$$$",
"$$$$$$$$OO$$$$$$$$$$OO$$$$$$$$$$$$$$$$$$OO$$$$$$$$$$OO$$$$$$$$$$$$$$$$$$OO$$$$$$$$$$OO$$$$$$$$$$",
"$$$$$$$$OO$$$$$$$$$$OO$$$$$$$$$$$$$$$$$$OO$$$$$$$$$$OO$$$$$$$$$$$$$$$$$$OO$$$$$$$$$$OO$$$$$$$$$$",
"$$$$$$$$oo$$$$$$$$$$oo$$$$$$$$$$$$$$$$$$oo$$$$$$$$$$oo$$$$$$$$$$$$$$$$$$oo$$$$$$$$$$oo$$$$$$$$$$",
"$$$$$$$$oo$$$$$$$$$$oo$$$$$$$$$$$$$$$$$$oo$$$$$$$$$$oo$$$$$$$$$$$$$$$$$$oo$$$$$$$$$$oo$$$$$$$$$$",
"$$$$$$$$oo$$$$$$$$$$oo$$$$$$$$$$$$$$$$$$oo$$$$$$$$$$oo$$$$$$$$$$$$$$$$$$oo$$$$$$$$$$oo$$$$$$$$$$",
"$$$$$$$$oo$$$$$$$$$$oo$$$$$$$$$$$$$$$$$$oo$$$$$$$$$$oo$$$$$$$$$$$$$$$$$$oo$$$$$$$$$$oo$$$$$$$$$$",
"$$$$$$$$oo$$$$$$$$$$oo$$$$$$$$$$$$$$$$$$oo$$$$$$$$$$oo$$$$$$$$$$$$$$$$$$oo$$$$$$$$$$oo$$$$$$$$$$",
"$$$$$$$$oo$$$$$$$$$$oo$$$$$$$$$$$$$$$$$$oo$$$$$$$$$$oo$$$$$$$$$$$$$$$$$$oo$$$$$$$$$$oo$$$$$$$$$$",
"$$$$$$$$oo$$$$$$$$$$oo$$$$$$$$$$$$$$$$$$oo$$$$$$$$$$oo$$$$$$$$$$$$$$$$$$oo$$$$$$$$$$oo$$$$$$$$$$",
"$$$$$$$$oo$$$$$$$$$$oo$$$$$$$$$$$$$$$$$$oo$$$$$$$$$$oo$$$$$$$$$$$$$$$$$$oo$$$$$$$$$$oo$$$$$$$$$$",
"$$$$$$$$oo$$$$$$$$$$oo$$$$$$$$$$$$$$$$$$oo$$$$$$$$$$oo$$$$$$$$$$$$$$$$$$oo$$$$$$$$$$oo$$$$$$$$$$",
"$$$$$$$$oo$$$$$$$$$$oo$$$$$$$$$$$$$$$$$$oo$$$$$$$$$$oo$$$$$$$$$$$$$$$$$$oo$$$$$$$$$$oo$$$$$$$$$$",
"$$$$$$$$oo$$$$$$$$$$oo$$$$$$$$$$$$$$$$$$oo$$$$$$$$$$oo$$$$$$$$$$$$$$$$$$oo$$$$$$$$$$oo$$$$$$$$$$",
"$$$$$$$$oo$$$$$$$$$$oo$$$$$$$$$$$$$$$$$$oo$$$$$$$$$$oo$$$$$$$$$$$$$$$$$$oo$$$$$$$$$$oo$$$$$$$$$$",
"$$$$$$$$oo$$$$$$$$$$oo$$$$$$$$$$$$$$$$$$oo$$$$$$$$$$oo$$$$$$$$$$$$$$$$$$oo$$$$$$$$$$oo$$$$$$$$$$",
"$$$$$$$$oo$$$$$$$$$$oo$$$$$$$$$$$$$$$$$$oo$$$$$$$$$$oo$$$$$$$$$$$$$$$$$$oo$$$$$$$$$$oo$$$$$$$$$$",
"$$$$$$$$OO$$$$$$$$$$OO$$$$$$$$$$$$$$$$$$OO$$$$$$$$$$OO$$$$$$$$$$$$$$$$$$OO$$$$$$$$$$OO$$$$$$$$$$",
"$$$$$$$$OO$$$$$$$$$$OO$$$$$$$$$$$$$$$$$$OO$$$$$$$$$$OO$$$$$$$$$$$$$$$$$$OO$$$$$$$$$$OO$$$$$$$$$$",
"oooooooooooo$$$$$$oooooooooooo$$oooooooooooo$$$$$$oooooooooooo$$oooooooooooo$$$$$$oooooooooooo$$",
"oooooooooooo$$$$$$oooooooooooo$$oooooooooooo$$$$$$oooooooooooo$$oooooooooooo$$$$$$oooooooooooo$$",
"$$$$$$$$$$$$$$$$$$$$$$$$$$$$$$$$$$$$$$$$$$$$$$$$$$$$$$$$$$$$$$$$$$$$$$$$$$$$$$$$$$$$$$$$$$$$$$$$",
"$$$$$$$$$$$$$$$$$$$$$$$$$$$$$$$$$$$$$$$$$$$$$$$$$$$$$$$$$$$$$$$$$$$$$$$$$$$$$$$$$$$$$$$$$$$$$$$$",
"################################################################################################",
"################################################################################################",
"OOOOOOOOOOOOOOOOOOOOOOOOOOOOOOOOOOOOOOOOOOOOOOOOOOOOOOOOOOOOOOOOOOOOOOOOOOOOOOOOOOOOOOOOOOOOOOOO",
"OOOOOOOOOOOOOOOOOOOOOOOOOOOOOOOOOOOOOOOOOOOOOOOOOOOOOOOOOOOOOOOOOOOOOOOOOOOOOOOOOOOOOOOOOOOOOOOO",
"++++++++++++++++++++++++++++++++++++++++++++++++++++++++++++++++++++++++++++++++++++++++++++++++",
"++++++++++++++++++++++++++++++++++++++++++++++++++++++++++++++++++++++++++++++++++++++++++++++++",
"@@@@@@@@@@@@@@@@@@@@@@@@@@@@@@@@@@@@@@@@@@@@@@@@@@@@@@@@@@@@@@@@@@@@@@@@@@@@@@@@@@@@@@@@@@@@@@@@",
"@@@@@@@@@@@@@@@@@@@@@@@@@@@@@@@@@@@@@@@@@@@@@@@@@@@@@@@@@@@@@@@@@@@@@@@@@@@@@@@@@@@@@@@@@@@@@@@@",
"XXXXXXXXXXXXXXXXXXXXXXXXXXXXXXXXXXXXXXXXXXXXXXXXXXXXXXXXXXXXXXXXXXXXXXXXXXXXXXXXXXXXXXXXXXXXXXXX",
"XXXXXXXXXXXXXXXXXXXXXXXXXXXXXXXXXXXXXXXXXXXXXXXXXXXXXXXXXXXXXXXXXXXXXXXXXXXXXXXXXXXXXXXXXXXXXXXX",
"................................................................................................",
"................................................................................................",
"                                                                                                ",
"                                                                                                "
};
