/* XPM */
static char *fb7dd2a255224f84d50e4a405a638132SYNJ5N2IByFC0WvK[] = {
/* columns rows colors chars-per-pixel */
"96 96 18 1 ",
"  c black",
". c black",
"X c None",
"o c #BA6965",
"O c #875B6C",
"+ c #925252",
"@ c #944C57",
"# c #79484B",
"$ c #6A4956",
"% c #743E48",
"& c #694347",
"* c #593F4C",
"= c #613842",
"- c #4D3A44",
"; c #54343C",
": c #413232",
"> c #3C302F",
", c #2C2A24",
/* pixels */
">>&&&&&&&&&&>>;;;;;;;;;;>>------>>&&&&&&&&&&>>;;;;;;;;;;>>------>>&&&&&&&&&&>>;;;;;;;;;;>>------",
">>&&&&&&&&&&>>;;;;;;;;;;>>------>>&&&&&&&&&&>>;;;;;;;;;;>>------>>&&&&&&&&&&>>;;;;;;;;;;>>------",
">>&&&&##&&&&>>;;;;==;;;;>>------>>&&&&##&&&&>>;;;;==;;;;>>------>>&&&&##&&&&>>;;;;==;;;;>>------",
">>&&&&##&&&&>>;;;;==;;;;>>------>>&&&&##&&&&>>;;;;==;;;;>>------>>&&&&##&&&&>>;;;;==;;;;>>------",
">>&&######&&>>;;======;;>>--**-->>&&######&&>>;;======;;>>--**-->>&&######&&>>;;======;;>>--**--",
">>&&######&&>>;;======;;>>--**-->>&&######&&>>;;======;;>>--**-->>&&######&&>>;;======;;>>--**--",
"::##########::==========::******::##########::==========::******::##########::==========::******",
"::##########::==========::******::##########::==========::******::##########::==========::******",
"::##++##++##::==%%==%%==::**$$**::##++##++##::==%%==%%==::**$$**::##++##++##::==%%==%%==::**$$**",
"::##++##++##::==%%==%%==::**$$**::##++##++##::==%%==%%==::**$$**::##++##++##::==%%==%%==::**$$**",
"::++##++##++::%%==%%==%%::$$**$$::++##++##++::%%==%%==%%::$$**$$::++##++##++::%%==%%==%%::$$**$$",
"::++##++##++::%%==%%==%%::$$**$$::++##++##++::%%==%%==%%::$$**$$::++##++##++::%%==%%==%%::$$**$$",
"::++++++++++::%%%%%%%%%%::$$$$**::++++++++++::%%%%%%%%%%::$$$$**::++++++++++::%%%%%%%%%%::$$$$**",
"::++++++++++::%%%%%%%%%%::$$$$**::++++++++++::%%%%%%%%%%::$$$$**::++++++++++::%%%%%%%%%%::$$$$**",
"::oo++++++oo::@@%%%%%%@@::OO$$$$::oo++++++oo::@@%%%%%%@@::OO$$$$::oo++++++oo::@@%%%%%%@@::OO$$$$",
"::oo++++++oo::@@%%%%%%@@::OO$$$$::oo++++++oo::@@%%%%%%@@::OO$$$$::oo++++++oo::@@%%%%%%@@::OO$$$$",
"::++++++++++::%%%%%%%%%%::$$$$$$::++++++++++::%%%%%%%%%%::$$$$$$::++++++++++::%%%%%%%%%%::$$$$$$",
"::++++++++++::%%%%%%%%%%::$$$$$$::++++++++++::%%%%%%%%%%::$$$$$$::++++++++++::%%%%%%%%%%::$$$$$$",
"::oo++++++oo::%%%%%%%%@@::$$$$$$::oo++++++oo::%%%%%%%%@@::$$$$$$::oo++++++oo::%%%%%%%%@@::$$$$$$",
"::oo++++++oo::%%%%%%%%@@::$$$$$$::oo++++++oo::%%%%%%%%@@::$$$$$$::oo++++++oo::%%%%%%%%@@::$$$$$$",
"::oo++##++oo::@@%%==%%@@::OO$$$$::oo++##++oo::@@%%==%%@@::OO$$$$::oo++##++oo::@@%%==%%@@::OO$$$$",
"::oo++##++oo::@@%%==%%@@::OO$$$$::oo++##++oo::@@%%==%%@@::OO$$$$::oo++##++oo::@@%%==%%@@::OO$$$$",
"::oo++++++oo::@@%%%%%%@@::OO$$$$::oo++++++oo::@@%%%%%%@@::OO$$$$::oo++++++oo::@@%%%%%%@@::OO$$$$",
"::oo++++++oo::@@%%%%%%@@::OO$$$$::oo++++++oo::@@%%%%%%@@::OO$$$$::oo++++++oo::@@%%%%%%@@::OO$$$$",
"::oo++##++oo::@@%%==%%@@::OO$$$$::oo++##++oo::@@%%==%%@@::OO$$$$::oo++##++oo::@@%%==%%@@::OO$$$$",
"::oo++##++oo::@@%%==%%@@::OO$$$$::oo++##++oo::@@%%==%%@@::OO$$$$::oo++##++oo::@@%%==%%@@::OO$$$$",
"::oo++##++oo::@@%%==%%@@::OO**$$::oo++##++oo::@@%%==%%@@::OO**$$::oo++##++oo::@@%%==%%@@::OO**$$",
"::oo++##++oo::@@%%==%%@@::OO**$$::oo++##++oo::@@%%==%%@@::OO**$$::oo++##++oo::@@%%==%%@@::OO**$$",
"::oo##++##oo::@@==%%==@@::OO$$$$::oo##++##oo::@@==%%==@@::OO$$$$::oo##++##oo::@@==%%==@@::OO$$$$",
"::oo##++##oo::@@==%%==@@::OO$$$$::oo##++##oo::@@==%%==@@::OO$$$$::oo##++##oo::@@==%%==@@::OO$$$$",
"::oo######oo::@@======@@::OO**$$::oo######oo::@@======@@::OO**$$::oo######oo::@@======@@::OO**$$",
"::oo######oo::@@======@@::OO**$$::oo######oo::@@======@@::OO**$$::oo######oo::@@======@@::OO**$$",
"::++##++##++::%%==%%==%%::OO****::++##++##++::%%==%%==%%::OO****::++##++##++::%%==%%==%%::OO****",
"::++##++##++::%%==%%==%%::OO****::++##++##++::%%==%%==%%::OO****::++##++##++::%%==%%==%%::OO****",
"::oo######oo::@@======@@::OO**$$::oo######oo::@@======@@::OO**$$::oo######oo::@@======@@::OO**$$",
"::oo######oo::@@======@@::OO**$$::oo######oo::@@======@@::OO**$$::oo######oo::@@======@@::OO**$$",
"::++######++::%%======%%::OO****::++######++::%%======%%::OO****::++######++::%%======%%::OO****",
"::++######++::%%======%%::OO****::++######++::%%======%%::OO****::++######++::%%======%%::OO****",
"::++######++::%%======%%::OO****::++######++::%%======%%::OO****::++######++::%%======%%::OO****",
"::++######++::%%======%%::OO****::++######++::%%======%%::OO****::++######++::%%======%%::OO****",
"::++######++::%%======%%::OO**$$::++######++::%%======%%::OO**$$::++######++::%%======%%::OO**$$",
"::++######++::%%======%%::OO**$$::++######++::%%======%%::OO**$$::++######++::%%======%%::OO**$$",
"::++######++::%%======%%::$$**$$::++######++::%%======%%::$$**$$::++######++::%%======%%::$$**$$",
"::++######++::%%======%%::$$**$$::++######++::%%======%%::$$**$$::++######++::%%======%%::$$**$$",
"::++######++::%%======%%::$$**$$::++######++::%%======%%::$$**$$::++######++::%%======%%::$$**$$",
"::++######++::%%======%%::$$**$$::++######++::%%======%%::$$**$$::++######++::%%======%%::$$**$$",
"::++######++::%%======%%::$$**$$::++######++::%%======%%::$$**$$::++######++::%%======%%::$$**$$",
"::++######++::%%======%%::$$**$$::++######++::%%======%%::$$**$$::++######++::%%======%%::$$**$$",
"::++######++::%%======%%::$$**$$::++######++::%%======%%::$$**$$::++######++::%%======%%::$$**$$",
"::++######++::%%======%%::$$**$$::++######++::%%======%%::$$**$$::++######++::%%======%%::$$**$$",
"&&&&&&&&&&&&&&&&&&&&&&&&&&&&&&&&&&&&&&&&&&&&&&&&&&&&&&&&&&&&&&&&&&&&&&&&&&&&&&&&&&&&&&&&&&&&&&&&",
"&&&&&&&&&&&&&&&&&&&&&&&&&&&&&&&&&&&&&&&&&&&&&&&&&&&&&&&&&&&&&&&&&&&&&&&&&&&&&&&&&&&&&&&&&&&&&&&&",
"++++++++++++++++++++++++++++++++++++++++++++++++++++++++++++++++++++++++++++++++++++++++++++++++",
"++++++++++++++++++++++++++++++++++++++++++++++++++++++++++++++++++++++++++++++++++++++++++++++++",
"oooooooooooooooooooooooooooooooooooooooooooooooooooooooooooooooooooooooooooooooooooooooooooooooo",
"oooooooooooooooooooooooooooooooooooooooooooooooooooooooooooooooooooooooooooooooooooooooooooooooo",
"################################################################################################",
"################################################################################################",
"################################################################################################",
"################################################################################################",
"::::::::::::::::::::::::::::::::::::::::::::::::::::::::::::::::::::::::::::::::::::::::::::::::",
"::::::::::::::::::::::::::::::::::::::::::::::::::::::::::::::::::::::::::::::::::::::::::::::::",
"::&&&&&&&&&&::;;;;;;;;;;::------::&&&&&&&&&&::;;;;;;;;;;::------::&&&&&&&&&&::;;;;;;;;;;::------",
"::&&&&&&&&&&::;;;;;;;;;;::------::&&&&&&&&&&::;;;;;;;;;;::------::&&&&&&&&&&::;;;;;;;;;;::------",
"::##&&&&&&##::==;;;;;;==::------::##&&&&&&##::==;;;;;;==::------::##&&&&&&##::==;;;;;;==::------",
"::##&&&&&&##::==;;;;;;==::------::##&&&&&&##::==;;;;;;==::------::##&&&&&&##::==;;;;;;==::------",
"::++######++::%%======%%::******::++######++::%%======%%::******::++######++::%%======%%::******",
"::++######++::%%======%%::******::++######++::%%======%%::******::++######++::%%======%%::******",
"::++##&&##++::%%==;;==%%::$$**--::++##&&##++::%%==;;==%%::$$**--::++##&&##++::%%==;;==%%::$$**--",
"::++##&&##++::%%==;;==%%::$$**--::++##&&##++::%%==;;==%%::$$**--::++##&&##++::%%==;;==%%::$$**--",
"::++##&&##++::%%==;;==%%::$$****::++##&&##++::%%==;;==%%::$$****::++##&&##++::%%==;;==%%::$$****",
"::++##&&##++::%%==;;==%%::$$****::++##&&##++::%%==;;==%%::$$****::++##&&##++::%%==;;==%%::$$****",
"::++&&##&&++::%%;;==;;%%::$$**--::++&&##&&++::%%;;==;;%%::$$**--::++&&##&&++::%%;;==;;%%::$$**--",
"::++&&##&&++::%%;;==;;%%::$$**--::++&&##&&++::%%;;==;;%%::$$**--::++&&##&&++::%%;;==;;%%::$$**--",
"::++&&&&&&++::%%;;;;;;%%::$$****::++&&&&&&++::%%;;;;;;%%::$$****::++&&&&&&++::%%;;;;;;%%::$$****",
"::++&&&&&&++::%%;;;;;;%%::$$****::++&&&&&&++::%%;;;;;;%%::$$****::++&&&&&&++::%%;;;;;;%%::$$****",
"::##&&##&&##::==;;==;;==::******::##&&##&&##::==;;==;;==::******::##&&##&&##::==;;==;;==::******",
"::##&&##&&##::==;;==;;==::******::##&&##&&##::==;;==;;==::******::##&&##&&##::==;;==;;==::******",
"::++&&&&&&++::%%;;;;;;%%::$$****::++&&&&&&++::%%;;;;;;%%::$$****::++&&&&&&++::%%;;;;;;%%::$$****",
"::++&&&&&&++::%%;;;;;;%%::$$****::++&&&&&&++::%%;;;;;;%%::$$****::++&&&&&&++::%%;;;;;;%%::$$****",
"::##&&&&&&##::==;;;;;;==::**--**::##&&&&&&##::==;;;;;;==::**--**::##&&&&&&##::==;;;;;;==::**--**",
"::##&&&&&&##::==;;;;;;==::**--**::##&&&&&&##::==;;;;;;==::**--**::##&&&&&&##::==;;;;;;==::**--**",
">>>>>>>>>>>>>>>>>>>>>>>>>>>>>>>>>>>>>>>>>>>>>>>>>>>>>>>>>>>>>>>>>>>>>>>>>>>>>>>>>>>>>>>>>>>>>>>>",
">>>>>>>>>>>>>>>>>>>>>>>>>>>>>>>>>>>>>>>>>>>>>>>>>>>>>>>>>>>>>>>>>>>>>>>>>>>>>>>>>>>>>>>>>>>>>>>>",
"&&&&&&&&&&&&&&&&&&&&&&&&&&&&&&&&&&&&&&&&&&&&&&&&&&&&&&&&&&&&&&&&&&&&&&&&&&&&&&&&&&&&&&&&&&&&&&&&",
"&&&&&&&&&&&&&&&&&&&&&&&&&&&&&&&&&&&&&&&&&&&&&&&&&&&&&&&&&&&&&&&&&&&&&&&&&&&&&&&&&&&&&&&&&&&&&&&&",
"::::::::::::::::::::::::::::::::::::::::::::::::::::::::::::::::::::::::::::::::::::::::::::::::",
"::::::::::::::::::::::::::::::::::::::::::::::::::::::::::::::::::::::::::::::::::::::::::::::::",
",,,,,,,,,,,,,,,,,,,,,,,,,,,,,,,,,,,,,,,,,,,,,,,,,,,,,,,,,,,,,,,,,,,,,,,,,,,,,,,,,,,,,,,,,,,,,,,,",
",,,,,,,,,,,,,,,,,,,,,,,,,,,,,,,,,,,,,,,,,,,,,,,,,,,,,,,,,,,,,,,,,,,,,,,,,,,,,,,,,,,,,,,,,,,,,,,,",
"XXXXXXXXXXXXXXXXXXXXXXXXXXXXXXXXXXXXXXXXXXXXXXXXXXXXXXXXXXXXXXXXXXXXXXXXXXXXXXXXXXXXXXXXXXXXXXXX",
"XXXXXXXXXXXXXXXXXXXXXXXXXXXXXXXXXXXXXXXXXXXXXXXXXXXXXXXXXXXXXXXXXXXXXXXXXXXXXXXXXXXXXXXXXXXXXXXX",
"................................................................................................",
"................................................................................................",
"                                                                                                ",
"                                                                                                "
};
